<svg width="20" height="20" viewBox="0 0 20 20" fill="none" xmlns="http://www.w3.org/2000/svg">
<path d="M17.5 15.8337H4.16667V2.50033C4.16667 2.27931 4.07887 2.06735 3.92259 1.91107C3.76631 1.75479 3.55435 1.66699 3.33333 1.66699C3.11232 1.66699 2.90036 1.75479 2.74408 1.91107C2.5878 2.06735 2.5 2.27931 2.5 2.50033V16.667C2.5 16.888 2.5878 17.1 2.74408 17.2562C2.90036 17.4125 3.11232 17.5003 3.33333 17.5003H17.5C17.721 17.5003 17.933 17.4125 18.0893 17.2562C18.2455 17.1 18.3333 16.888 18.3333 16.667C18.3333 16.446 18.2455 16.234 18.0893 16.0777C17.933 15.9215 17.721 15.8337 17.5 15.8337Z" fill="#464255"/>
<path d="M5.83325 9.16634V13.333C5.83325 13.554 5.92105 13.766 6.07733 13.9223C6.23361 14.0785 6.44557 14.1663 6.66659 14.1663C6.8876 14.1663 7.09956 14.0785 7.25584 13.9223C7.41212 13.766 7.49992 13.554 7.49992 13.333V9.16634C7.49992 8.94533 7.41212 8.73337 7.25584 8.57709C7.09956 8.42081 6.8876 8.33301 6.66659 8.33301C6.44557 8.33301 6.23361 8.42081 6.07733 8.57709C5.92105 8.73337 5.83325 8.94533 5.83325 9.16634Z" fill="#464255"/>
<path d="M9.16675 5.00033V13.3337C9.16675 13.5547 9.25455 13.7666 9.41083 13.9229C9.56711 14.0792 9.77907 14.167 10.0001 14.167C10.2211 14.167 10.4331 14.0792 10.5893 13.9229C10.7456 13.7666 10.8334 13.5547 10.8334 13.3337V5.00033C10.8334 4.77931 10.7456 4.56735 10.5893 4.41107C10.4331 4.25479 10.2211 4.16699 10.0001 4.16699C9.77907 4.16699 9.56711 4.25479 9.41083 4.41107C9.25455 4.56735 9.16675 4.77931 9.16675 5.00033Z" fill="#464255"/>
<path d="M12.5 6.66634V13.333C12.5 13.554 12.5878 13.766 12.7441 13.9223C12.9004 14.0785 13.1123 14.1663 13.3333 14.1663C13.5543 14.1663 13.7663 14.0785 13.9226 13.9223C14.0789 13.766 14.1667 13.554 14.1667 13.333V6.66634C14.1667 6.44533 14.0789 6.23337 13.9226 6.07709C13.7663 5.92081 13.5543 5.83301 13.3333 5.83301C13.1123 5.83301 12.9004 5.92081 12.7441 6.07709C12.5878 6.23337 12.5 6.44533 12.5 6.66634Z" fill="#464255"/>
<path d="M15.8333 2.50033V13.3337C15.8333 13.5547 15.921 13.7666 16.0773 13.9229C16.2336 14.0792 16.4456 14.167 16.6666 14.167C16.8876 14.167 17.0996 14.0792 17.2558 13.9229C17.4121 13.7666 17.4999 13.5547 17.4999 13.3337V2.50033C17.4999 2.27931 17.4121 2.06735 17.2558 1.91107C17.0996 1.75479 16.8876 1.66699 16.6666 1.66699C16.4456 1.66699 16.2336 1.75479 16.0773 1.91107C15.921 2.06735 15.8333 2.27931 15.8333 2.50033Z" fill="#464255"/>
</svg>
