<svg width="17" height="17" viewBox="0 0 17 17" fill="none" xmlns="http://www.w3.org/2000/svg">
<path d="M15.54 7.06152H10.1277V1.45345C10.1277 0.650403 9.47732 0 8.67427 0C7.87122 0 7.22081 0.650403 7.22081 1.45345V7.06152H1.44682C0.650404 7.06152 0 7.71193 0 8.51498C0 9.31803 0.650404 9.96843 1.45345 9.96843H7.22745V15.5433C7.22745 16.3464 7.87785 16.9968 8.6809 16.9968C9.48395 16.9968 10.1344 16.3464 10.1344 15.5433V9.96843H15.5466C16.3497 9.96843 17.0001 9.31803 17.0001 8.51498C16.9901 7.71193 16.3431 7.06152 15.54 7.06152Z" fill="white"/>
</svg>
