<svg width="20" height="20" viewBox="0 0 20 20" fill="none" xmlns="http://www.w3.org/2000/svg">
<path d="M17.5 15.8333H4.16667V2.49999C4.16667 2.27898 4.07887 2.06701 3.92259 1.91073C3.76631 1.75445 3.55435 1.66666 3.33333 1.66666C3.11232 1.66666 2.90036 1.75445 2.74408 1.91073C2.5878 2.06701 2.5 2.27898 2.5 2.49999V16.6667C2.5 16.8877 2.5878 17.0996 2.74408 17.2559C2.90036 17.4122 3.11232 17.5 3.33333 17.5H17.5C17.721 17.5 17.933 17.4122 18.0893 17.2559C18.2455 17.0996 18.3333 16.8877 18.3333 16.6667C18.3333 16.4456 18.2455 16.2337 18.0893 16.0774C17.933 15.9211 17.721 15.8333 17.5 15.8333Z" fill="#464255"/>
<path d="M5.83335 9.16668V13.3333C5.83335 13.5544 5.92115 13.7663 6.07743 13.9226C6.23371 14.0789 6.44567 14.1667 6.66668 14.1667C6.8877 14.1667 7.09966 14.0789 7.25594 13.9226C7.41222 13.7663 7.50002 13.5544 7.50002 13.3333V9.16668C7.50002 8.94566 7.41222 8.7337 7.25594 8.57742C7.09966 8.42114 6.8877 8.33334 6.66668 8.33334C6.44567 8.33334 6.23371 8.42114 6.07743 8.57742C5.92115 8.7337 5.83335 8.94566 5.83335 9.16668Z" fill="#464255"/>
<path d="M9.16665 4.99999V13.3333C9.16665 13.5543 9.25445 13.7663 9.41073 13.9226C9.56701 14.0789 9.77897 14.1667 9.99998 14.1667C10.221 14.1667 10.433 14.0789 10.5892 13.9226C10.7455 13.7663 10.8333 13.5543 10.8333 13.3333V4.99999C10.8333 4.77898 10.7455 4.56701 10.5892 4.41073C10.433 4.25445 10.221 4.16666 9.99998 4.16666C9.77897 4.16666 9.56701 4.25445 9.41073 4.41073C9.25445 4.56701 9.16665 4.77898 9.16665 4.99999Z" fill="#464255"/>
<path d="M12.5 6.66668V13.3333C12.5 13.5544 12.5878 13.7663 12.7441 13.9226C12.9004 14.0789 13.1123 14.1667 13.3333 14.1667C13.5543 14.1667 13.7663 14.0789 13.9226 13.9226C14.0789 13.7663 14.1667 13.5544 14.1667 13.3333V6.66668C14.1667 6.44566 14.0789 6.2337 13.9226 6.07742C13.7663 5.92114 13.5543 5.83334 13.3333 5.83334C13.1123 5.83334 12.9004 5.92114 12.7441 6.07742C12.5878 6.2337 12.5 6.44566 12.5 6.66668Z" fill="#464255"/>
<path d="M15.8334 2.49999V13.3333C15.8334 13.5543 15.9212 13.7663 16.0774 13.9226C16.2337 14.0789 16.4457 14.1667 16.6667 14.1667C16.8877 14.1667 17.0997 14.0789 17.2559 13.9226C17.4122 13.7663 17.5 13.5543 17.5 13.3333V2.49999C17.5 2.27898 17.4122 2.06701 17.2559 1.91073C17.0997 1.75445 16.8877 1.66666 16.6667 1.66666C16.4457 1.66666 16.2337 1.75445 16.0774 1.91073C15.9212 2.06701 15.8334 2.27898 15.8334 2.49999Z" fill="#464255"/>
</svg>
