<svg width="20" height="20" viewBox="0 0 20 20" fill="none" xmlns="http://www.w3.org/2000/svg">
<path d="M5 17.5003H15C15.663 17.5003 16.2989 17.2369 16.7678 16.7681C17.2366 16.2993 17.5 15.6634 17.5 15.0003V5.00033C17.5 4.33728 17.2366 3.7014 16.7678 3.23256C16.2989 2.76372 15.663 2.50033 15 2.50033H14.1667C14.1667 2.27931 14.0789 2.06735 13.9226 1.91107C13.7663 1.75479 13.5543 1.66699 13.3333 1.66699C13.1123 1.66699 12.9004 1.75479 12.7441 1.91107C12.5878 2.06735 12.5 2.27931 12.5 2.50033H7.5C7.5 2.27931 7.4122 2.06735 7.25592 1.91107C7.09964 1.75479 6.88768 1.66699 6.66667 1.66699C6.44565 1.66699 6.23369 1.75479 6.07741 1.91107C5.92113 2.06735 5.83333 2.27931 5.83333 2.50033H5C4.33696 2.50033 3.70107 2.76372 3.23223 3.23256C2.76339 3.7014 2.5 4.33728 2.5 5.00033V15.0003C2.5 15.6634 2.76339 16.2993 3.23223 16.7681C3.70107 17.2369 4.33696 17.5003 5 17.5003ZM4.16667 5.00033C4.16667 4.77931 4.25446 4.56735 4.41074 4.41107C4.56702 4.25479 4.77899 4.16699 5 4.16699H5.83333V5.00033C5.83333 5.22134 5.92113 5.4333 6.07741 5.58958C6.23369 5.74586 6.44565 5.83366 6.66667 5.83366C6.88768 5.83366 7.09964 5.74586 7.25592 5.58958C7.4122 5.4333 7.5 5.22134 7.5 5.00033V4.16699H12.5V5.00033C12.5 5.22134 12.5878 5.4333 12.7441 5.58958C12.9004 5.74586 13.1123 5.83366 13.3333 5.83366C13.5543 5.83366 13.7663 5.74586 13.9226 5.58958C14.0789 5.4333 14.1667 5.22134 14.1667 5.00033V4.16699H15C15.221 4.16699 15.433 4.25479 15.5893 4.41107C15.7455 4.56735 15.8333 4.77931 15.8333 5.00033V7.50033H4.16667V5.00033ZM4.16667 9.16699H15.8333V15.0003C15.8333 15.2213 15.7455 15.4333 15.5893 15.5896C15.433 15.7459 15.221 15.8337 15 15.8337H5C4.77899 15.8337 4.56702 15.7459 4.41074 15.5896C4.25446 15.4333 4.16667 15.2213 4.16667 15.0003V9.16699Z" fill="#464255"/>
</svg>
