<svg width="29" height="27" viewBox="0 0 29 27" fill="none" xmlns="http://www.w3.org/2000/svg">
<path d="M28.3435 8.603C27.981 7.02549 27.3919 5.72141 26.3497 4.69076C24.8771 3.17635 22.9513 2.44017 20.663 2.44017H20.3685C17.9442 2.50328 15.9505 3.40772 14.5458 5.04833C14.0247 4.50146 13.3677 3.95459 12.62 3.53392C11.1473 2.71361 9.44812 2.37707 7.52234 2.50327C5.39265 2.71361 3.69342 3.59702 2.42467 5.04833C1.08795 6.68895 0.430914 8.5399 0.498883 10.454C0.566852 12.2418 1.15592 13.8824 2.26608 15.4599C3.51217 17.2478 5.07546 18.615 6.48015 19.7087C8.4739 21.3493 10.7622 22.8006 13.6395 24.294C13.9341 24.4413 14.1606 24.5044 14.4552 24.5044C14.7497 24.5044 14.9763 24.4413 15.2708 24.294C17.7856 22.9899 19.9833 21.6228 21.9771 20.0453C24.0388 18.4677 25.5114 16.9533 26.6896 15.3127C28.2755 13.1883 28.774 11.0008 28.3435 8.603Z" fill="#EB5757"/>
</svg>
