<svg width="24" height="29" viewBox="0 0 24 29" fill="none" xmlns="http://www.w3.org/2000/svg">
<path d="M6 9.5183V8.32853C6 4.386 8.68629 1.18994 12 1.18994C15.3137 1.18994 18 4.386 18 8.32853V9.5183H20C20.5523 9.5183 21 10.051 21 10.7081V24.9853C21 25.6424 20.5523 26.175 20 26.175H4C3.44772 26.175 3 25.6424 3 24.9853V10.7081C3 10.051 3.44772 9.5183 4 9.5183H6ZM19 11.8978H5V23.7955H19V11.8978ZM11 18.718C10.4022 18.3066 10 17.5377 10 16.6569C10 15.3427 10.8954 14.2774 12 14.2774C13.1046 14.2774 14 15.3427 14 16.6569C14 17.5377 13.5978 18.3066 13 18.718V21.416H11V18.718ZM8 9.5183H16V8.32853C16 5.70018 14.2091 3.56947 12 3.56947C9.79086 3.56947 8 5.70018 8 8.32853V9.5183Z" fill="#1C1C1C"/>
</svg>
