<svg width="20" height="20" viewBox="0 0 20 20" fill="none" xmlns="http://www.w3.org/2000/svg">
<path d="M17.5002 4.16667H2.50023C2.02801 4.16667 1.6669 3.80555 1.6669 3.33333C1.6669 2.86111 2.02801 2.5 2.50023 2.5H17.5002C17.9725 2.5 18.3336 2.86111 18.3336 3.33333C18.3336 3.80555 17.9725 4.16667 17.5002 4.16667Z" fill="#464255"/>
<path d="M12.5002 8.61109H2.50023C2.02801 8.61109 1.6669 8.24998 1.6669 7.77776C1.6669 7.30554 2.02801 6.94443 2.50023 6.94443H12.5002C12.9725 6.94443 13.3336 7.30554 13.3336 7.77776C13.3336 8.24998 12.9725 8.61109 12.5002 8.61109Z" fill="#464255"/>
<path d="M17.5002 13.0555H2.50023C2.02801 13.0555 1.6669 12.6944 1.6669 12.2222C1.6669 11.75 2.02801 11.3888 2.50023 11.3888H17.5002C17.9725 11.3888 18.3336 11.75 18.3336 12.2222C18.3336 12.6944 17.9725 13.0555 17.5002 13.0555Z" fill="#464255"/>
<path d="M12.5002 17.5H2.50023C2.02801 17.5 1.6669 17.1388 1.6669 16.6666C1.6669 16.1944 2.02801 15.8333 2.50023 15.8333H12.5002C12.9725 15.8333 13.3336 16.1944 13.3336 16.6666C13.3336 17.1388 12.9725 17.5 12.5002 17.5Z" fill="#464255"/>
</svg>
