<svg width="609" height="493" viewBox="0 0 609 493" fill="none" xmlns="http://www.w3.org/2000/svg">
<mask id="path-1-outside-1_364_4" maskUnits="userSpaceOnUse" x="0" y="107" width="609" height="66" fill="black">
<rect fill="white" y="107" width="609" height="66"/>
<path d="M0 117C0 111.477 4.47715 107 10 107H599C604.523 107 609 111.477 609 117V162C609 167.523 604.523 172 599 172H10C4.47715 172 0 167.523 0 162V117Z"/>
</mask>
<path d="M0 117C0 111.477 4.47715 107 10 107H599C604.523 107 609 111.477 609 117V162C609 167.523 604.523 172 599 172H10C4.47715 172 0 167.523 0 162V117Z" fill="#EEEEEE"/>
<path d="M0 107H609H0ZM609 162C609 168.075 604.075 173 598 173H11C4.92487 173 0 168.075 0 162C0 166.971 4.47715 171 10 171H599C604.523 171 609 166.971 609 162ZM0 172V107V172ZM609 107V172V107Z" fill="#9563FF" mask="url(#path-1-outside-1_364_4)"/>
<mask id="path-3-outside-2_364_4" maskUnits="userSpaceOnUse" x="0" y="321" width="609" height="66" fill="black">
<rect fill="white" y="321" width="609" height="66"/>
<path d="M0 331C0 325.477 4.47715 321 10 321H599C604.523 321 609 325.477 609 331V376C609 381.523 604.523 386 599 386H10C4.47715 386 0 381.523 0 376V331Z"/>
</mask>
<path d="M0 331C0 325.477 4.47715 321 10 321H599C604.523 321 609 325.477 609 331V376C609 381.523 604.523 386 599 386H10C4.47715 386 0 381.523 0 376V331Z" fill="#EEEEEE"/>
<path d="M0 321H609H0ZM609 376C609 382.075 604.075 387 598 387H11C4.92487 387 0 382.075 0 376C0 380.971 4.47715 385 10 385H599C604.523 385 609 380.971 609 376ZM0 386V321V386ZM609 321V386V321Z" fill="#9563FF" mask="url(#path-3-outside-2_364_4)"/>
<mask id="path-5-outside-3_364_4" maskUnits="userSpaceOnUse" x="0" y="0" width="609" height="67" fill="black">
<rect fill="white" width="609" height="67"/>
<path d="M0 10C0 4.47715 4.47715 0 10 0H599C604.523 0 609 4.47715 609 10V56C609 61.5229 604.523 66 599 66H10C4.47715 66 0 61.5228 0 56V10Z"/>
</mask>
<path d="M0 10C0 4.47715 4.47715 0 10 0H599C604.523 0 609 4.47715 609 10V56C609 61.5229 604.523 66 599 66H10C4.47715 66 0 61.5228 0 56V10Z" fill="#EEEEEE"/>
<path d="M0 0H609H0ZM609 56C609 62.0751 604.075 67 598 67H11C4.92487 67 0 62.0751 0 56C0 60.9706 4.47715 65 10 65H599C604.523 65 609 60.9706 609 56ZM0 66V0V66ZM609 0V66V0Z" fill="#9563FF" mask="url(#path-5-outside-3_364_4)"/>
<mask id="path-7-outside-4_364_4" maskUnits="userSpaceOnUse" x="0" y="213" width="283" height="68" fill="black">
<rect fill="white" y="213" width="283" height="68"/>
<path d="M0 223C0 217.477 4.47715 213 10 213H273C278.523 213 283 217.477 283 223V270C283 275.523 278.523 280 273 280H9.99999C4.47714 280 0 275.523 0 270V223Z"/>
</mask>
<path d="M0 223C0 217.477 4.47715 213 10 213H273C278.523 213 283 217.477 283 223V270C283 275.523 278.523 280 273 280H9.99999C4.47714 280 0 275.523 0 270V223Z" fill="#EEEEEE"/>
<path d="M0 213H283H0ZM283 270C283 276.075 278.075 281 272 281H11C4.92487 281 0 276.075 0 270C0 274.971 4.47715 279 10 279H273C278.523 279 283 274.971 283 270ZM0 280V213V280ZM283 213V280V213Z" fill="#9563FF" mask="url(#path-7-outside-4_364_4)"/>
<path d="M0 437C0 431.477 4.47715 427 10 427H232C237.523 427 242 431.477 242 437V483C242 488.523 237.523 493 232 493H9.99999C4.47715 493 0 488.523 0 483V437Z" fill="#102B06"/>
<mask id="path-10-outside-5_364_4" maskUnits="userSpaceOnUse" x="369" y="213" width="240" height="68" fill="black">
<rect fill="white" x="369" y="213" width="240" height="68"/>
<path d="M369 223C369 217.477 373.477 213 379 213H599C604.523 213 609 217.477 609 223V270C609 275.523 604.523 280 599 280H379C373.477 280 369 275.523 369 270V223Z"/>
</mask>
<path d="M369 223C369 217.477 373.477 213 379 213H599C604.523 213 609 217.477 609 223V270C609 275.523 604.523 280 599 280H379C373.477 280 369 275.523 369 270V223Z" fill="#EEEEEE"/>
<path d="M369 213H609H369ZM609 270C609 276.075 604.075 281 598 281H380C373.925 281 369 276.075 369 270C369 274.971 373.477 279 379 279H599C604.523 279 609 274.971 609 270ZM369 280V213V280ZM609 213V280V213Z" fill="#9563FF" mask="url(#path-10-outside-5_364_4)"/>
</svg>
