<svg width="20" height="20" viewBox="0 0 20 20" fill="none" xmlns="http://www.w3.org/2000/svg">
<path d="M5.83334 10.0002V13.3335C5.83334 13.5545 5.92114 13.7665 6.07742 13.9227C6.2337 14.079 6.44566 14.1668 6.66668 14.1668H10C10.1097 14.1675 10.2184 14.1464 10.3199 14.105C10.4215 14.0635 10.5138 14.0024 10.5917 13.9252L16.6667 7.85849C17.199 7.31892 17.4975 6.59145 17.4975 5.83349C17.4975 5.07553 17.199 4.34806 16.6667 3.80849L16.1917 3.33349C15.6441 2.81662 14.9197 2.52869 14.1667 2.52869C13.4137 2.52869 12.6892 2.81662 12.1417 3.33349L6.07501 9.40849C5.99777 9.48636 5.93667 9.5787 5.8952 9.68023C5.85373 9.78176 5.83271 9.89048 5.83334 10.0002ZM7.50001 10.3418L13.3333 4.50849C13.559 4.29638 13.857 4.17829 14.1667 4.17829C14.4764 4.17829 14.7744 4.29638 15 4.50849L15.4667 4.97515C15.6865 5.19679 15.8099 5.49632 15.8099 5.80849C15.8099 6.12066 15.6865 6.42019 15.4667 6.64182L9.63334 12.4752H7.50001V10.3418Z" fill="#464255"/>
<path d="M16.6667 10C16.4457 10 16.2337 10.0878 16.0774 10.2441C15.9211 10.4004 15.8333 10.6123 15.8333 10.8333V15C15.8333 15.221 15.7455 15.433 15.5893 15.5893C15.433 15.7455 15.221 15.8333 15 15.8333H5C4.77899 15.8333 4.56702 15.7455 4.41074 15.5893C4.25446 15.433 4.16667 15.221 4.16667 15V5C4.16667 4.77899 4.25446 4.56702 4.41074 4.41074C4.56702 4.25446 4.77899 4.16667 5 4.16667H9.16667C9.38768 4.16667 9.59964 4.07887 9.75592 3.92259C9.9122 3.76631 10 3.55435 10 3.33333C10 3.11232 9.9122 2.90036 9.75592 2.74408C9.59964 2.5878 9.38768 2.5 9.16667 2.5H5C4.33696 2.5 3.70107 2.76339 3.23223 3.23223C2.76339 3.70107 2.5 4.33696 2.5 5V15C2.5 15.663 2.76339 16.2989 3.23223 16.7678C3.70107 17.2366 4.33696 17.5 5 17.5H15C15.663 17.5 16.2989 17.2366 16.7678 16.7678C17.2366 16.2989 17.5 15.663 17.5 15V10.8333C17.5 10.6123 17.4122 10.4004 17.2559 10.2441C17.0996 10.0878 16.8877 10 16.6667 10Z" fill="#464255"/>
</svg>
