<svg width="130" height="153" viewBox="0 0 130 153" fill="none" xmlns="http://www.w3.org/2000/svg">
<path d="M53.2724 1.97486C53.2724 0.870111 54.1683 -0.0281999 55.2727 0.000677278C67.1655 0.31165 78.832 3.39225 89.3403 9.00905C100.437 14.9404 109.9 23.517 116.89 33.979C123.881 44.4411 128.183 56.4657 129.417 68.9877C130.65 81.5097 128.776 94.1426 123.961 105.767C119.146 117.392 111.538 127.65 101.812 135.632C92.0851 143.615 80.5402 149.075 68.1993 151.53C55.8585 153.984 43.1028 153.358 31.062 149.705C19.6598 146.247 9.23205 140.175 0.602665 131.986C-0.198665 131.225 -0.196929 129.957 0.584249 129.175L41.0375 88.7222C41.8186 87.941 43.0783 87.9532 43.9547 88.6259C45.4116 89.7442 47.0624 90.5945 48.8303 91.1308C51.2385 91.8614 53.7897 91.9867 56.2578 91.4957C58.726 91.0048 61.035 89.9127 62.9803 88.3163C64.9256 86.7198 66.4471 84.6682 67.4101 82.3433C68.3732 80.0183 68.748 77.4917 68.5013 74.9873C68.2546 72.4829 67.3941 70.078 65.996 67.9856C64.5979 65.8932 62.7054 64.1779 60.486 62.9916C58.8566 62.1207 57.0881 61.5546 55.2671 61.3152C54.1718 61.1712 53.2724 60.2891 53.2724 59.1844V1.97486Z" fill="#2D9CDB"/>
</svg>
