<svg width="20" height="20" viewBox="0 0 20 20" fill="none" xmlns="http://www.w3.org/2000/svg">
<path d="M17.5003 4.16667H2.50033C2.0281 4.16667 1.66699 3.80555 1.66699 3.33333C1.66699 2.86111 2.0281 2.5 2.50033 2.5H17.5003C17.9725 2.5 18.3337 2.86111 18.3337 3.33333C18.3337 3.80555 17.9725 4.16667 17.5003 4.16667Z" fill="#464255"/>
<path d="M12.5003 8.61149H2.50033C2.0281 8.61149 1.66699 8.25038 1.66699 7.77816C1.66699 7.30594 2.0281 6.94482 2.50033 6.94482H12.5003C12.9725 6.94482 13.3337 7.30594 13.3337 7.77816C13.3337 8.25038 12.9725 8.61149 12.5003 8.61149Z" fill="#464255"/>
<path d="M17.5003 13.0558H2.50033C2.0281 13.0558 1.66699 12.6947 1.66699 12.2225C1.66699 11.7503 2.0281 11.3892 2.50033 11.3892H17.5003C17.9725 11.3892 18.3337 11.7503 18.3337 12.2225C18.3337 12.6947 17.9725 13.0558 17.5003 13.0558Z" fill="#464255"/>
<path d="M12.5003 17.5002H2.50033C2.0281 17.5002 1.66699 17.1391 1.66699 16.6668C1.66699 16.1946 2.0281 15.8335 2.50033 15.8335H12.5003C12.9725 15.8335 13.3337 16.1946 13.3337 16.6668C13.3337 17.1391 12.9725 17.5002 12.5003 17.5002Z" fill="#464255"/>
</svg>
