<svg width="24" height="24" viewBox="0 0 24 24" fill="none" xmlns="http://www.w3.org/2000/svg">
<path d="M21 19H3C2.73478 19 2.48043 19.1054 2.29289 19.2929C2.10536 19.4804 2 19.7348 2 20C2 20.2652 2.10536 20.5196 2.29289 20.7071C2.48043 20.8946 2.73478 21 3 21H21C21.2652 21 21.5196 20.8946 21.7071 20.7071C21.8946 20.5196 22 20.2652 22 20C22 19.7348 21.8946 19.4804 21.7071 19.2929C21.5196 19.1054 21.2652 19 21 19Z" fill="#2D9CDB"/>
<path d="M12.0002 2C11.735 2 11.4806 2.10536 11.2931 2.29289C11.1055 2.48043 11.0002 2.73478 11.0002 3V13.59L7.71019 10.29C7.52188 10.1017 7.26649 9.99591 7.00019 9.99591C6.73388 9.99591 6.47849 10.1017 6.29019 10.29C6.10188 10.4783 5.99609 10.7337 5.99609 11C5.99609 11.2663 6.10188 11.5217 6.29019 11.71L11.2902 16.71C11.3831 16.8037 11.4937 16.8781 11.6156 16.9289C11.7375 16.9797 11.8682 17.0058 12.0002 17.0058C12.1322 17.0058 12.2629 16.9797 12.3848 16.9289C12.5066 16.8781 12.6172 16.8037 12.7102 16.71L17.7102 11.71C17.8034 11.6168 17.8774 11.5061 17.9278 11.3843C17.9783 11.2624 18.0043 11.1319 18.0043 11C18.0043 10.8681 17.9783 10.7376 17.9278 10.6158C17.8774 10.4939 17.8034 10.3832 17.7102 10.29C17.6169 10.1968 17.5063 10.1228 17.3844 10.0723C17.2626 10.0219 17.132 9.99591 17.0002 9.99591C16.8683 9.99591 16.7378 10.0219 16.6159 10.0723C16.4941 10.1228 16.3834 10.1968 16.2902 10.29L13.0002 13.59V3C13.0002 2.73478 12.8948 2.48043 12.7073 2.29289C12.5198 2.10536 12.2654 2 12.0002 2Z" fill="#2D9CDB"/>
</svg>
