<svg width="24" height="29" viewBox="0 0 24 29" fill="none" xmlns="http://www.w3.org/2000/svg">
<path d="M20 26.175H18V23.7955C18 21.8242 16.6569 20.2262 15 20.2262H9C7.34315 20.2262 6 21.8242 6 23.7955V26.175H4V23.7955C4 20.5101 6.23858 17.8467 9 17.8467H15C17.7614 17.8467 20 20.5101 20 23.7955V26.175ZM12 15.4671C8.68629 15.4671 6 12.2711 6 8.32853C6 4.386 8.68629 1.18994 12 1.18994C15.3137 1.18994 18 4.386 18 8.32853C18 12.2711 15.3137 15.4671 12 15.4671ZM12 13.0876C14.2091 13.0876 16 10.9569 16 8.32853C16 5.70018 14.2091 3.56947 12 3.56947C9.79086 3.56947 8 5.70018 8 8.32853C8 10.9569 9.79086 13.0876 12 13.0876Z" fill="#1C1C1C"/>
</svg>
