<svg width="20" height="20" viewBox="0 0 20 20" fill="none" xmlns="http://www.w3.org/2000/svg">
<path d="M2.49985 18.3339H5.83318C5.94286 18.3346 6.05158 18.3135 6.15311 18.2721C6.25464 18.2306 6.34698 18.1695 6.42485 18.0923L16.4249 8.09227C16.503 8.0148 16.565 7.92263 16.6073 7.82108C16.6496 7.71953 16.6714 7.61061 16.6714 7.5006C16.6714 7.39059 16.6496 7.28167 16.6073 7.18012C16.565 7.07857 16.503 6.9864 16.4249 6.90893L13.0915 3.5756C13.014 3.49749 12.9219 3.4355 12.8203 3.39319C12.7188 3.35088 12.6099 3.3291 12.4999 3.3291C12.3898 3.3291 12.2809 3.35088 12.1794 3.39319C12.0778 3.4355 11.9857 3.49749 11.9082 3.5756L1.90818 13.5756C1.83095 13.6535 1.76985 13.7458 1.72838 13.8473C1.6869 13.9489 1.66588 14.0576 1.66652 14.1673V17.5006C1.66652 17.7216 1.75432 17.9336 1.9106 18.0899C2.06688 18.2461 2.27884 18.3339 2.49985 18.3339ZM3.33318 14.5089L12.4999 5.34227L14.6582 7.5006L5.49152 16.6673H3.33318V14.5089Z" fill="#464255"/>
<path d="M14.7585 1.90816C14.6808 1.83046 14.5885 1.76883 14.487 1.72678C14.3855 1.68473 14.2767 1.66309 14.1668 1.66309C13.9449 1.66309 13.7321 1.75124 13.5752 1.90816C13.4182 2.06508 13.3301 2.27791 13.3301 2.49983C13.3301 2.72175 13.4182 2.93458 13.5752 3.0915L16.9085 6.42483C16.986 6.50294 17.0781 6.56493 17.1797 6.60724C17.2812 6.64955 17.3901 6.67133 17.5002 6.67133C17.6102 6.67133 17.7191 6.64955 17.8206 6.60724C17.9222 6.56493 18.0143 6.50294 18.0918 6.42483C18.1699 6.34736 18.2319 6.25519 18.2742 6.15365C18.3165 6.0521 18.3383 5.94317 18.3383 5.83316C18.3383 5.72315 18.3165 5.61423 18.2742 5.51268C18.2319 5.41113 18.1699 5.31897 18.0918 5.2415L14.7585 1.90816Z" fill="#464255"/>
</svg>
