<svg width="20" height="20" viewBox="0 0 20 20" fill="none" xmlns="http://www.w3.org/2000/svg">
<path d="M10.5417 1.86666C10.3908 1.73757 10.1987 1.66664 10 1.66666H4.16671C3.94569 1.66666 3.73373 1.75445 3.57745 1.91073C3.42117 2.06701 3.33337 2.27898 3.33337 2.49999V17.5C3.33337 17.721 3.42117 17.933 3.57745 18.0892C3.73373 18.2455 3.94569 18.3333 4.16671 18.3333H15.8334C16.0544 18.3333 16.2664 18.2455 16.4226 18.0892C16.5789 17.933 16.6667 17.721 16.6667 17.5V7.49999C16.6667 7.37962 16.6406 7.26068 16.5903 7.15135C16.5399 7.04202 16.4665 6.9449 16.375 6.86666L10.5417 1.86666ZM10.8334 4.30832L13.5834 6.66666H10.8334V4.30832ZM15 16.6667H5.00004V3.33332H9.16671V7.49999C9.16671 7.721 9.25451 7.93297 9.41079 8.08925C9.56707 8.24553 9.77903 8.33332 10 8.33332H15V16.6667Z" fill="#464255"/>
</svg>
