<svg width="20" height="20" viewBox="0 0 20 20" fill="none" xmlns="http://www.w3.org/2000/svg">
<path d="M16.875 6.875H16.0032L16.1094 5.81119C16.1354 5.55056 16.1066 5.28737 16.0246 5.03858C15.9427 4.78979 15.8096 4.56093 15.6338 4.36674C15.458 4.17255 15.2435 4.01734 15.0041 3.91112C14.7647 3.80489 14.5057 3.75001 14.2437 3.75H4.50625C4.24427 3.75002 3.9852 3.80493 3.74573 3.9112C3.50627 4.01746 3.29173 4.17272 3.11594 4.36696C2.94015 4.56121 2.80701 4.79013 2.7251 5.03897C2.64319 5.28782 2.61433 5.55107 2.64037 5.81175L3.4963 15.3719C3.51309 15.5218 3.48018 15.2108 3.59993 15.8107H1.73055C1.56479 15.8107 1.40582 15.8765 1.28861 15.9937C1.1714 16.1109 1.10555 16.2699 1.10555 16.4357C1.10555 16.6014 1.1714 16.7604 1.28861 16.8776C1.40582 16.9948 1.56479 17.0607 1.73055 17.0607L17 17.25C17.1658 17.25 17.3247 17.1842 17.4419 17.0669C17.5591 16.9497 17.625 16.7908 17.625 16.625C17.625 16.4592 17.5591 16.3003 17.4419 16.1831C17.3247 16.0658 17.1658 16 17 16H15.1307C15.1827 15.8586 15.2175 15.7115 15.2342 15.5618L15.4405 12.5H16.875C17.3721 12.4995 17.8487 12.3017 18.2002 11.9502C18.5517 11.5987 18.7495 11.1221 18.75 10.625V8.75C18.7495 8.25289 18.5517 7.77629 18.2002 7.42478C17.8487 7.07327 17.3721 6.87555 16.875 6.875ZM5.66128 15.8107C5.50625 15.8112 5.3566 15.7538 5.24167 15.6498C5.12673 15.5457 5.05478 15.4025 5.03991 15.2482L4.13784 5.83982C4.12913 5.75289 4.13874 5.6651 4.16603 5.5821C4.19332 5.49911 4.23769 5.42275 4.29629 5.35795C4.35489 5.29314 4.42641 5.24133 4.50625 5.20585C4.58608 5.17037 4.67247 5.15201 4.75984 5.15195L14.0204 5.20585C14.1077 5.20591 14.1941 5.22426 14.2739 5.25971C14.3537 5.29517 14.4252 5.34694 14.4838 5.4117C14.5424 5.47647 14.5868 5.55278 14.6141 5.63574C14.6414 5.71869 14.6511 5.80645 14.6424 5.89335L14.0204 15.2488C14.0054 15.4031 13.9334 15.5462 13.8184 15.6501C13.7034 15.754 13.5538 15.8113 13.3988 15.8107H5.66128ZM17.5 10.625C17.4999 10.7907 17.434 10.9496 17.3168 11.0668C17.1996 11.184 17.0407 11.2499 16.875 11.25H15.5656L15.8781 8.125H16.875C17.0407 8.1251 17.1996 8.19098 17.3168 8.30817C17.434 8.42536 17.4999 8.58427 17.5 8.75V10.625Z" fill="#464255"/>
</svg>
