<svg width="22" height="24" viewBox="0 0 22 24" fill="none" xmlns="http://www.w3.org/2000/svg">
<path d="M13.3208 11.9998C13.3214 12.1314 13.299 12.2619 13.2548 12.3837C13.2106 12.5056 13.1455 12.6164 13.0632 12.7098L9.51098 16.7098C9.34376 16.8981 9.11695 17.0039 8.88046 17.0039C8.64397 17.0039 8.41716 16.8981 8.24994 16.7098C8.08272 16.5215 7.98877 16.2661 7.98877 15.9998C7.98877 15.7335 8.08272 15.4781 8.24994 15.2898L11.1805 11.9998L8.25882 8.70982C8.11333 8.51851 8.03731 8.27244 8.04594 8.02076C8.05457 7.76909 8.14723 7.53035 8.30539 7.35225C8.46355 7.17416 8.67556 7.06983 8.89906 7.06011C9.12257 7.05038 9.3411 7.13599 9.51098 7.29982L13.0632 11.2998C13.2273 11.4861 13.3198 11.7375 13.3208 11.9998Z" fill="#F8B602"/>
</svg>
