<svg width="28" height="28" viewBox="0 0 28 28" fill="none" xmlns="http://www.w3.org/2000/svg">
<path d="M14.0002 13.9998C14.6445 13.9998 15.1668 13.4775 15.1668 12.8332C15.1668 12.1888 14.6445 11.6665 14.0002 11.6665C13.3558 11.6665 12.8335 12.1888 12.8335 12.8332C12.8335 13.4775 13.3558 13.9998 14.0002 13.9998Z" fill="#2D9CDB"/>
<path d="M9.33317 13.9998C9.9775 13.9998 10.4998 13.4775 10.4998 12.8332C10.4998 12.1888 9.9775 11.6665 9.33317 11.6665C8.68884 11.6665 8.1665 12.1888 8.1665 12.8332C8.1665 13.4775 8.68884 13.9998 9.33317 13.9998Z" fill="#2D9CDB"/>
<path d="M18.6667 13.9998C19.311 13.9998 19.8333 13.4775 19.8333 12.8332C19.8333 12.1888 19.311 11.6665 18.6667 11.6665C18.0223 11.6665 17.5 12.1888 17.5 12.8332C17.5 13.4775 18.0223 13.9998 18.6667 13.9998Z" fill="#2D9CDB"/>
<path d="M3.55809 25.515C3.80228 25.6157 4.06395 25.6673 4.32809 25.6667C4.5886 25.668 4.84672 25.617 5.08719 25.5168C5.32765 25.4166 5.54559 25.2692 5.72809 25.0833L8.64476 22.1667H19.8331C21.3802 22.1667 22.8639 21.5521 23.9579 20.4581C25.0518 19.3642 25.6664 17.8804 25.6664 16.3333V9.33333C25.6664 7.78624 25.0518 6.30251 23.9579 5.20854C22.8639 4.11458 21.3802 3.5 19.8331 3.5H8.16643C6.61933 3.5 5.1356 4.11458 4.04164 5.20854C2.94768 6.30251 2.33309 7.78624 2.33309 9.33333V23.6717C2.3294 24.0662 2.44416 24.4528 2.66255 24.7814C2.88094 25.1101 3.1929 25.3656 3.55809 25.515ZM4.66643 9.33333C4.66643 8.40508 5.03518 7.51484 5.69155 6.85846C6.34793 6.20208 7.23817 5.83333 8.16643 5.83333H19.8331C20.7614 5.83333 21.6516 6.20208 22.308 6.85846C22.9643 7.51484 23.3331 8.40508 23.3331 9.33333V16.3333C23.3331 17.2616 22.9643 18.1518 22.308 18.8082C21.6516 19.4646 20.7614 19.8333 19.8331 19.8333H8.16643C8.01289 19.8324 7.86068 19.8619 7.71854 19.9199C7.57639 19.978 7.44711 20.0635 7.33809 20.1717L4.66643 22.855V9.33333Z" fill="#2D9CDB"/>
</svg>
