<svg width="28" height="28" viewBox="0 0 28 28" fill="none" xmlns="http://www.w3.org/2000/svg">
<path d="M14 9.625C13.1347 9.625 12.2888 9.88159 11.5694 10.3623C10.8499 10.8431 10.2892 11.5263 9.95803 12.3258C9.6269 13.1252 9.54026 14.0048 9.70907 14.8535C9.87788 15.7022 10.2946 16.4817 10.9064 17.0936C11.5183 17.7054 12.2978 18.1221 13.1465 18.2909C13.9951 18.4597 14.8748 18.3731 15.6742 18.042C16.4737 17.7108 17.1569 17.1501 17.6377 16.4306C18.1184 15.7111 18.375 14.8653 18.375 14C18.3736 12.8401 17.9122 11.7281 17.0921 10.9079C16.2719 10.0877 15.1599 9.62637 14 9.625ZM14 16.625C13.4808 16.625 12.9733 16.471 12.5416 16.1826C12.1099 15.8942 11.7735 15.4842 11.5748 15.0045C11.3761 14.5249 11.3242 13.9971 11.4254 13.4879C11.5267 12.9787 11.7767 12.511 12.1438 12.1438C12.511 11.7767 12.9787 11.5267 13.4879 11.4254C13.9971 11.3241 14.5249 11.3761 15.0045 11.5748C15.4842 11.7735 15.8942 12.1099 16.1826 12.5416C16.471 12.9733 16.625 13.4808 16.625 14C16.6242 14.696 16.3474 15.3632 15.8553 15.8553C15.3632 16.3474 14.696 16.6242 14 16.625Z" fill="#FF5B5B"/>
<path d="M5.48931 8.55995C5.05905 8.3983 4.58279 8.41036 4.16126 8.59358C3.73974 8.7768 3.40602 9.11681 3.2307 9.54168C3.05538 9.96654 3.0522 10.443 3.22185 10.8701C3.3915 11.2973 3.72066 11.6417 4.13971 11.8305C4.56601 12.0108 4.92974 12.3128 5.18546 12.6986C5.44118 13.0844 5.57756 13.537 5.57756 13.9999C5.57756 14.4627 5.44118 14.9153 5.18546 15.3012C4.92974 15.687 4.56601 15.9889 4.13971 16.1692C3.72056 16.358 3.39132 16.7025 3.22165 17.1298C3.05198 17.557 3.05519 18.0335 3.2306 18.4585C3.40602 18.8834 3.73988 19.2234 4.16153 19.4065C4.58318 19.5897 5.05955 19.6016 5.48983 19.4398C5.91921 19.2649 6.39064 19.2206 6.84506 19.3125C7.29949 19.4043 7.71671 19.6283 8.04446 19.9562C8.3722 20.2841 8.59591 20.7014 8.68754 21.1559C8.77918 21.6103 8.73467 22.0817 8.5596 22.511C8.39271 22.9424 8.40307 23.4223 8.58842 23.8461C8.77376 24.2699 9.11908 24.6033 9.54913 24.7737C9.7645 24.8628 9.99531 24.9087 10.2284 24.9087C10.5689 24.9111 10.9026 24.8129 11.1875 24.6265C11.4724 24.44 11.696 24.1736 11.8302 23.8606C12.0105 23.4343 12.3124 23.0706 12.6982 22.8149C13.084 22.5592 13.5366 22.4228 13.9995 22.4228C14.4624 22.4228 14.915 22.5592 15.3008 22.8149C15.6866 23.0706 15.9885 23.4343 16.1689 23.8606C16.3577 24.2798 16.7022 24.609 17.1294 24.7787C17.5567 24.9484 18.0332 24.9452 18.4581 24.7697C18.883 24.5943 19.223 24.2605 19.4062 23.8388C19.5893 23.4172 19.6013 22.9408 19.4394 22.5105C19.2646 22.0811 19.2203 21.6097 19.3121 21.1553C19.404 20.7008 19.6279 20.2836 19.9558 19.9559C20.2837 19.6281 20.701 19.4044 21.1555 19.3128C21.61 19.2212 22.0814 19.2657 22.5107 19.4407C22.9394 19.6072 23.4164 19.5983 23.8386 19.4159C24.2608 19.2335 24.5942 18.8924 24.767 18.4662L23.9646 18.1176L23.1683 17.8194C22.4205 17.5138 21.599 17.4362 20.8072 17.5963C20.0154 17.7564 19.2886 18.1471 18.7182 18.7191C18.1482 19.2937 17.7566 20.0209 17.5906 20.813C17.4245 21.6051 17.4912 22.4283 17.7824 23.1834C17.4703 22.4382 16.9446 21.802 16.2715 21.3552C15.5984 20.9083 14.808 20.6707 14.0001 20.6724C13.1904 20.6749 12.3988 20.912 11.721 21.3551C11.0433 21.7981 10.5085 22.4281 10.1813 23.1688C10.4866 22.4209 10.5641 21.5995 10.404 20.8077C10.244 20.0159 9.85344 19.2891 9.28156 18.7186C8.70694 18.1487 7.97978 17.7572 7.18769 17.5911C6.39561 17.4251 5.57241 17.4917 4.81731 17.7829C5.5625 17.4707 6.19857 16.9448 6.64534 16.2716C7.0921 15.5984 7.32956 14.808 7.32777 14.0001C7.32526 13.1904 7.08814 12.3988 6.64509 11.721C6.20204 11.0433 5.57207 10.5085 4.8314 10.1813C5.57924 10.4868 6.40071 10.5644 7.19252 10.4043C7.98434 10.2442 8.71115 9.8536 9.28156 9.28156C9.85153 8.70699 10.2431 7.97982 10.4092 7.18772C10.5752 6.39561 10.5086 5.5724 10.2173 4.81731C10.5295 5.5625 11.0554 6.19857 11.7285 6.64534C12.4017 7.0921 13.1921 7.32956 14.0001 7.32777C14.8098 7.32526 15.6014 7.08814 16.2791 6.64509C16.9569 6.20204 17.4917 5.57207 17.8188 4.8314C17.5135 5.57927 17.436 6.40069 17.5961 7.19247C17.7562 7.98424 18.1467 8.71104 18.7186 9.28156C19.2934 9.85124 20.0205 10.2426 20.8126 10.4087C21.6046 10.5747 22.4277 10.5082 23.1829 10.2173C22.4413 10.5288 21.8078 11.0518 21.3614 11.7209C20.9149 12.39 20.6753 13.1758 20.6724 13.9802C20.6695 14.7845 20.9034 15.572 21.345 16.2443C21.7865 16.9167 22.4162 17.4442 23.1556 17.7611C23.158 17.7683 23.158 17.7761 23.1556 17.7833L23.9643 18.117L24.7684 18.4618L24.7731 18.4507C24.9517 18.0269 24.9561 17.5499 24.7852 17.1229C24.6144 16.696 24.2821 16.3536 23.8605 16.1701C23.4342 15.9898 23.0704 15.6878 22.8147 15.302C22.559 14.9162 22.4226 14.4636 22.4226 14.0007C22.4226 13.5379 22.559 13.0853 22.8147 12.6994C23.0704 12.3136 23.4342 12.0117 23.8605 11.8314C24.2796 11.6426 24.6088 11.2981 24.7785 10.8708C24.9482 10.4436 24.945 9.96708 24.7696 9.54215C24.5941 9.11722 24.2603 8.77721 23.8386 8.59406C23.417 8.4109 22.9406 8.39899 22.5103 8.56082C22.081 8.73569 21.6095 8.77996 21.1551 8.68811C20.7007 8.59625 20.2835 8.37235 19.9557 8.04444C19.628 7.71654 19.4043 7.29921 19.3126 6.84474C19.221 6.39027 19.2655 5.91886 19.4406 5.48957C19.6023 5.05931 19.5904 4.58298 19.4072 4.16138C19.224 3.73978 18.884 3.40598 18.4591 3.2306C18.0342 3.05523 17.5578 3.05204 17.1305 3.22171C16.7033 3.39138 16.3589 3.7206 16.1701 4.13971C15.9898 4.56601 15.6879 4.92974 15.302 5.18546C14.9162 5.44118 14.4636 5.57756 14.0007 5.57756C13.5379 5.57756 13.0853 5.44118 12.6994 5.18546C12.3136 4.92974 12.0117 4.56601 11.8314 4.13971C11.6426 3.72056 11.2981 3.39132 10.8708 3.22165C10.4436 3.05198 9.96708 3.05519 9.54215 3.2306C9.11722 3.40602 8.77721 3.73988 8.59406 4.16153C8.41091 4.58318 8.39899 5.05955 8.56082 5.48983C8.73569 5.91921 8.77997 6.39064 8.68811 6.84506C8.59625 7.29949 8.37235 7.71671 8.04444 8.04446C7.71654 8.3722 7.29921 8.59591 6.84474 8.68754C6.39027 8.77918 5.91886 8.73467 5.48957 8.5596L5.48931 8.55995Z" fill="#FF5B5B"/>
</svg>
