<svg width="20" height="20" viewBox="0 0 20 20" fill="none" xmlns="http://www.w3.org/2000/svg">
<path d="M12.9748 9.7252C13.6879 9.11677 14.1973 8.30433 14.4343 7.39742C14.6713 6.49052 14.6245 5.53275 14.3003 4.65325C13.976 3.77375 13.3899 3.0148 12.621 2.47874C11.852 1.94268 10.9372 1.65527 9.99984 1.65527C9.06248 1.65527 8.14765 1.94268 7.3787 2.47874C6.60975 3.0148 6.02365 3.77375 5.69942 4.65325C5.37519 5.53275 5.32842 6.49052 5.56542 7.39742C5.80241 8.30433 6.31178 9.11677 7.02484 9.7252C5.45006 10.3271 4.09486 11.3924 3.13819 12.7805C2.18151 14.1687 1.66837 15.8143 1.6665 17.5002C1.6665 17.7212 1.7543 17.9332 1.91058 18.0895C2.06686 18.2457 2.27882 18.3335 2.49984 18.3335C2.72085 18.3335 2.93281 18.2457 3.08909 18.0895C3.24537 17.9332 3.33317 17.7212 3.33317 17.5002C3.33317 15.7321 4.03555 14.0364 5.28579 12.7862C6.53604 11.5359 8.23173 10.8335 9.99984 10.8335C11.7679 10.8335 13.4636 11.5359 14.7139 12.7862C15.9641 14.0364 16.6665 15.7321 16.6665 17.5002C16.6665 17.7212 16.7543 17.9332 16.9106 18.0895C17.0669 18.2457 17.2788 18.3335 17.4998 18.3335C17.7209 18.3335 17.9328 18.2457 18.0891 18.0895C18.2454 17.9332 18.3332 17.7212 18.3332 17.5002C18.3313 15.8143 17.8182 14.1687 16.8615 12.7805C15.9048 11.3924 14.5496 10.3271 12.9748 9.7252ZM9.99984 9.16687C9.42298 9.16687 8.85907 8.99581 8.37943 8.67532C7.89978 8.35483 7.52595 7.89931 7.30519 7.36636C7.08443 6.83341 7.02667 6.24696 7.13921 5.68119C7.25175 5.11541 7.52954 4.59571 7.93744 4.1878C8.34535 3.7799 8.86505 3.50212 9.43082 3.38957C9.9966 3.27703 10.583 3.33479 11.116 3.55555C11.6489 3.77631 12.1045 4.15014 12.425 4.62979C12.7454 5.10943 12.9165 5.67334 12.9165 6.2502C12.9165 7.02375 12.6092 7.76561 12.0622 8.31259C11.5153 8.85957 10.7734 9.16687 9.99984 9.16687Z" fill="#464255"/>
</svg>
