<svg width="20" height="20" viewBox="0 0 20 20" fill="none" xmlns="http://www.w3.org/2000/svg">
<path d="M5.83327 9.99979V13.3331C5.83327 13.5541 5.92106 13.7661 6.07734 13.9224C6.23362 14.0787 6.44559 14.1665 6.6666 14.1665H9.99993C10.1096 14.1671 10.2183 14.1461 10.3199 14.1046C10.4214 14.0631 10.5137 14.002 10.5916 13.9248L16.6666 7.85812C17.1989 7.31856 17.4974 6.59108 17.4974 5.83312C17.4974 5.07516 17.1989 4.34769 16.6666 3.80812L16.1916 3.33312C15.644 2.81625 14.9196 2.52832 14.1666 2.52832C13.4136 2.52832 12.6892 2.81625 12.1416 3.33312L6.07493 9.40812C5.9977 9.48599 5.93659 9.57834 5.89512 9.67987C5.85365 9.7814 5.83263 9.89012 5.83327 9.99979ZM7.49993 10.3415L13.3333 4.50812C13.5589 4.29601 13.8569 4.17793 14.1666 4.17793C14.4763 4.17793 14.7743 4.29601 14.9999 4.50812L15.4666 4.97479C15.6864 5.19642 15.8098 5.49595 15.8098 5.80812C15.8098 6.12029 15.6864 6.41982 15.4666 6.64146L9.63327 12.4748H7.49993V10.3415Z" fill="#464255"/>
<path d="M16.6667 10C16.4457 10 16.2337 10.0878 16.0774 10.2441C15.9211 10.4004 15.8333 10.6123 15.8333 10.8333V15C15.8333 15.221 15.7455 15.433 15.5893 15.5893C15.433 15.7455 15.221 15.8333 15 15.8333H5C4.77899 15.8333 4.56702 15.7455 4.41074 15.5893C4.25446 15.433 4.16667 15.221 4.16667 15V5C4.16667 4.77899 4.25446 4.56702 4.41074 4.41074C4.56702 4.25446 4.77899 4.16667 5 4.16667H9.16667C9.38768 4.16667 9.59964 4.07887 9.75592 3.92259C9.9122 3.76631 10 3.55435 10 3.33333C10 3.11232 9.9122 2.90036 9.75592 2.74408C9.59964 2.5878 9.38768 2.5 9.16667 2.5H5C4.33696 2.5 3.70107 2.76339 3.23223 3.23223C2.76339 3.70107 2.5 4.33696 2.5 5V15C2.5 15.663 2.76339 16.2989 3.23223 16.7678C3.70107 17.2366 4.33696 17.5 5 17.5H15C15.663 17.5 16.2989 17.2366 16.7678 16.7678C17.2366 16.2989 17.5 15.663 17.5 15V10.8333C17.5 10.6123 17.4122 10.4004 17.2559 10.2441C17.0996 10.0878 16.8877 10 16.6667 10Z" fill="#464255"/>
</svg>
