<svg width="153" height="153" viewBox="0 0 153 153" fill="none" xmlns="http://www.w3.org/2000/svg">
<path d="M76.5 1.97454C76.5 0.869971 77.3959 -0.028189 78.5001 0.000676865C94.2142 0.411477 109.439 5.65509 122.088 15.042C135.274 24.8268 144.961 38.5941 149.719 54.3091C154.476 70.0241 154.051 86.8528 148.506 102.308C142.962 117.762 132.592 131.023 118.929 140.13C105.267 149.237 89.0368 153.706 72.6384 152.877C56.24 152.048 40.5434 145.965 27.8688 135.527C15.1941 125.09 6.21408 110.851 2.25602 94.9157C-1.54114 79.6284 -0.523005 63.5581 5.14417 48.8957C5.54238 47.8654 6.71609 47.3841 7.73563 47.8091L60.5319 69.818C61.5515 70.243 62.0195 71.4124 61.731 72.4786C61.054 74.9809 61.0211 77.6257 61.6512 80.1628C62.4428 83.3498 64.2389 86.1976 66.7738 88.2851C69.3087 90.3727 72.448 91.5893 75.7277 91.755C79.0074 91.9208 82.2534 91.027 84.9859 89.2056C87.7184 87.3843 89.7924 84.7321 90.9013 81.6412C92.0102 78.5502 92.0952 75.1845 91.1437 72.0415C90.1923 68.8985 88.2548 66.145 85.6177 64.188C83.5185 62.6302 81.0646 61.643 78.4944 61.3051C77.3993 61.1611 76.5 60.2791 76.5 59.1745V1.97454Z" fill="#FF5B5B"/>
</svg>
