<svg width="43" height="48" viewBox="0 0 43 48" fill="none" xmlns="http://www.w3.org/2000/svg">
<g clip-path="url(#clip0_1_438)">
<path d="M22.2015 1.00001C24.5033 1.00001 26.6347 1.82001 28.3771 3.22001L12.154 21.486C11.9844 21.6705 11.849 21.8912 11.756 22.1352C11.6629 22.3792 11.6139 22.6416 11.6118 22.9072C11.6098 23.1728 11.6547 23.4361 11.744 23.6819C11.8333 23.9277 11.9652 24.151 12.132 24.3388C12.2987 24.5266 12.497 24.6751 12.7153 24.7757C12.9336 24.8762 13.1675 24.9268 13.4033 24.9245C13.6391 24.9222 13.8722 24.867 14.0889 24.7622C14.3056 24.6574 14.5016 24.505 14.6654 24.314L30.8885 6.04601C32.1729 8.07608 32.8615 10.5075 32.8582 13V33C32.8582 34.0609 32.484 35.0783 31.8178 35.8284C31.1516 36.5786 30.2481 37 29.306 37H4.4403C3.49819 37 2.59466 36.5786 1.92849 35.8284C1.26231 35.0783 0.888062 34.0609 0.888062 33V5.00001C0.888062 3.93914 1.26231 2.92172 1.92849 2.17158C2.59466 1.42143 3.49819 1.00001 4.4403 1.00001H22.2015ZM34.0251 -0.313994C34.3581 0.0610614 34.5451 0.569678 34.5451 1.10001C34.5451 1.63033 34.3581 2.13895 34.0251 2.51401L30.8867 6.04601C30.1951 4.95263 29.3463 3.99685 28.3753 3.21801L31.5119 -0.313994C31.845 -0.688936 32.2967 -0.899567 32.7676 -0.899567C33.2386 -0.899567 33.6921 -0.688936 34.0251 -0.313994Z" fill="black"/>
</g>
<defs>
<clipPath id="clip0_1_438">
<rect width="42.6269" height="48" fill="white"/>
</clipPath>
</defs>
</svg>
