<svg width="53" height="46" viewBox="0 0 53 46" fill="none" xmlns="http://www.w3.org/2000/svg">
<path d="M20.9066 0L0 9.67197L20.9066 19.3439L41.8132 9.67197L20.9066 0Z" fill="#00B074"/>
<path d="M12.4209 3.94569L8.48599 5.72533L29.3926 15.436L33.2933 13.6177L12.4209 3.94569Z" fill="#F7C604"/>
<path d="M0 9.67175V36.3277L20.9066 45.9997V19.3437L0 9.67175Z" fill="#0A5239"/>
<path d="M41.8132 9.67175V36.3277L20.9066 45.9997V19.3437L41.8132 9.67175Z" fill="#00D68D"/>
<path opacity="0.1" d="M41.8131 23.2906C41.1972 23.1358 40.5813 23.0584 39.9312 23.0584C34.8671 23.0584 30.761 27.701 30.761 33.4268C30.761 36.0962 31.6507 38.5336 33.122 40.3519L41.8131 36.3284V23.2906Z" fill="#0C1E5B"/>
<path d="M29.3926 15.4368V26.6176L33.2933 24.7992V13.6184L29.3926 15.4368Z" fill="#F7C604"/>
<path d="M43.6608 43.0213C48.7254 43.0213 52.831 38.3792 52.831 32.653C52.831 26.9267 48.7254 22.2846 43.6608 22.2846C38.5963 22.2846 34.4907 26.9267 34.4907 32.653C34.4907 38.3792 38.5963 43.0213 43.6608 43.0213Z" fill="#FF5B5B"/>
<path d="M42.7027 36.6757C42.429 36.6757 42.1895 36.5596 41.9842 36.3275L39.0757 33.039C38.6651 32.5747 38.6651 31.8397 39.0757 31.4141C39.4863 30.9498 40.1365 30.9498 40.5129 31.4141L42.7027 33.8901L46.8088 29.2476C47.2194 28.7833 47.8695 28.7833 48.2459 29.2476C48.6565 29.7118 48.6565 30.4469 48.2459 30.8725L43.4213 36.3275C43.216 36.5596 42.9765 36.6757 42.7027 36.6757Z" fill="white"/>
<path d="M6.77488 32.7302L4.51656 27.4686L2.39511 30.6023L3.55848 31.1826V34.5872L5.44042 35.5544V32.1112L6.77488 32.7302Z" fill="#F2F5F3"/>
</svg>
