<svg width="20" height="20" viewBox="0 0 20 20" fill="none" xmlns="http://www.w3.org/2000/svg">
<path d="M4.1665 17.5H15.8332C16.4962 17.5 17.1321 17.2366 17.6009 16.7678C18.0698 16.2989 18.3332 15.663 18.3332 15V5C18.3332 4.33696 18.0698 3.70107 17.6009 3.23223C17.1321 2.76339 16.4962 2.5 15.8332 2.5H4.1665C3.50346 2.5 2.86758 2.76339 2.39874 3.23223C1.9299 3.70107 1.6665 4.33696 1.6665 5V15C1.6665 15.663 1.9299 16.2989 2.39874 16.7678C2.86758 17.2366 3.50346 17.5 4.1665 17.5ZM16.6665 10.8333H12.4998V9.16667H16.6665V10.8333ZM3.33317 5C3.33317 4.77899 3.42097 4.56702 3.57725 4.41074C3.73353 4.25446 3.94549 4.16667 4.1665 4.16667H15.8332C16.0542 4.16667 16.2661 4.25446 16.4224 4.41074C16.5787 4.56702 16.6665 4.77899 16.6665 5V7.5H11.6665C11.4455 7.5 11.2335 7.5878 11.0773 7.74408C10.921 7.90036 10.8332 8.11232 10.8332 8.33333V11.6667C10.8332 11.8877 10.921 12.0996 11.0773 12.2559C11.2335 12.4122 11.4455 12.5 11.6665 12.5H16.6665V15C16.6665 15.221 16.5787 15.433 16.4224 15.5893C16.2661 15.7455 16.0542 15.8333 15.8332 15.8333H4.1665C3.94549 15.8333 3.73353 15.7455 3.57725 15.5893C3.42097 15.433 3.33317 15.221 3.33317 15V5Z" fill="#464255"/>
</svg>
