<svg width="20" height="20" viewBox="0 0 20 20" fill="none" xmlns="http://www.w3.org/2000/svg">
<path d="M4.16663 17.5H15.8333C16.4963 17.5 17.1322 17.2366 17.6011 16.7678C18.0699 16.2989 18.3333 15.663 18.3333 15V5C18.3333 4.33696 18.0699 3.70107 17.6011 3.23223C17.1322 2.76339 16.4963 2.5 15.8333 2.5H4.16663C3.50359 2.5 2.8677 2.76339 2.39886 3.23223C1.93002 3.70107 1.66663 4.33696 1.66663 5V15C1.66663 15.663 1.93002 16.2989 2.39886 16.7678C2.8677 17.2366 3.50359 17.5 4.16663 17.5ZM16.6666 10.8333H12.5V9.16667H16.6666V10.8333ZM3.33329 5C3.33329 4.77899 3.42109 4.56702 3.57737 4.41074C3.73365 4.25446 3.94561 4.16667 4.16663 4.16667H15.8333C16.0543 4.16667 16.2663 4.25446 16.4226 4.41074C16.5788 4.56702 16.6666 4.77899 16.6666 5V7.5H11.6666C11.4456 7.5 11.2337 7.5878 11.0774 7.74408C10.9211 7.90036 10.8333 8.11232 10.8333 8.33333V11.6667C10.8333 11.8877 10.9211 12.0996 11.0774 12.2559C11.2337 12.4122 11.4456 12.5 11.6666 12.5H16.6666V15C16.6666 15.221 16.5788 15.433 16.4226 15.5893C16.2663 15.7455 16.0543 15.8333 15.8333 15.8333H4.16663C3.94561 15.8333 3.73365 15.7455 3.57737 15.5893C3.42109 15.433 3.33329 15.221 3.33329 15V5Z" fill="#464255"/>
</svg>
