<svg width="20" height="20" viewBox="0 0 20 20" fill="none" xmlns="http://www.w3.org/2000/svg">
<path d="M15.9916 13.925C16.4243 13.4085 16.663 12.7571 16.6666 12.0833C16.6666 11.3098 16.3593 10.5679 15.8123 10.0209C15.2654 9.47393 14.5235 9.16664 13.7499 9.16664H13.5166C14.2038 8.34996 14.5815 7.31733 14.5833 6.24997C14.5852 5.48043 14.3934 4.72278 14.0254 4.04691C13.6575 3.37103 13.1252 2.79868 12.4779 2.38263C11.8305 1.96659 11.0888 1.72025 10.3211 1.66633C9.55345 1.6124 8.78457 1.75264 8.08538 2.0741C7.3862 2.39555 6.7792 2.88789 6.32038 3.50569C5.86155 4.12349 5.56567 4.84688 5.46002 5.60914C5.35437 6.3714 5.44234 7.14799 5.71584 7.86729C5.98933 8.5866 6.43954 9.22546 7.02494 9.72497C5.45016 10.3268 4.09496 11.3922 3.13828 12.7803C2.18161 14.1684 1.66847 15.8141 1.6666 17.5C1.6666 17.721 1.7544 17.9329 1.91068 18.0892C2.06696 18.2455 2.27892 18.3333 2.49994 18.3333C2.72095 18.3333 2.93291 18.2455 3.08919 18.0892C3.24547 17.9329 3.33327 17.721 3.33327 17.5C3.33327 15.7319 4.03565 14.0362 5.28589 12.7859C6.53613 11.5357 8.23183 10.8333 9.99994 10.8333H11.1249C10.8808 11.33 10.7871 11.8871 10.8552 12.4363C10.9233 12.9856 11.1503 13.5029 11.5083 13.925C10.7983 14.3221 10.2071 14.9013 9.7955 15.6029C9.3839 16.3045 9.16681 17.1032 9.1666 17.9166C9.1666 18.1376 9.2544 18.3496 9.41068 18.5059C9.56696 18.6622 9.77892 18.75 9.99994 18.75C10.221 18.75 10.4329 18.6622 10.5892 18.5059C10.7455 18.3496 10.8333 18.1376 10.8333 17.9166C10.8333 17.1431 11.1406 16.4012 11.6875 15.8542C12.2345 15.3073 12.9764 15 13.7499 15C14.5235 15 15.2654 15.3073 15.8123 15.8542C16.3593 16.4012 16.6666 17.1431 16.6666 17.9166C16.6666 18.1376 16.7544 18.3496 16.9107 18.5059C17.067 18.6622 17.2789 18.75 17.4999 18.75C17.721 18.75 17.9329 18.6622 18.0892 18.5059C18.2455 18.3496 18.3333 18.1376 18.3333 17.9166C18.3331 17.1032 18.116 16.3045 17.7044 15.6029C17.2928 14.9013 16.7015 14.3221 15.9916 13.925ZM9.99994 9.16664C9.42307 9.16664 8.85917 8.99558 8.37952 8.67509C7.89988 8.3546 7.52604 7.89908 7.30529 7.36613C7.08453 6.83318 7.02677 6.24674 7.13931 5.68096C7.25185 5.11518 7.52964 4.59548 7.93754 4.18758C8.34545 3.77968 8.86515 3.50189 9.43092 3.38935C9.9967 3.27681 10.5831 3.33457 11.1161 3.55532C11.649 3.77608 12.1046 4.14992 12.4251 4.62956C12.7455 5.1092 12.9166 5.67311 12.9166 6.24997C12.9166 7.02352 12.6093 7.76539 12.0623 8.31237C11.5154 8.85935 10.7735 9.16664 9.99994 9.16664ZM13.7499 13.3333C13.4184 13.3333 13.1005 13.2016 12.8661 12.9672C12.6316 12.7328 12.4999 12.4148 12.4999 12.0833C12.5021 11.7525 12.6345 11.4358 12.8685 11.2018C13.1024 10.9679 13.4191 10.8355 13.7499 10.8333C14.0815 10.8333 14.3994 10.965 14.6338 11.1994C14.8682 11.4338 14.9999 11.7518 14.9999 12.0833C14.9999 12.4148 14.8682 12.7328 14.6338 12.9672C14.3994 13.2016 14.0815 13.3333 13.7499 13.3333Z" fill="#464255"/>
</svg>
