<svg width="22" height="24" viewBox="0 0 22 24" fill="none" xmlns="http://www.w3.org/2000/svg">
<path d="M13.4359 12C13.4366 12.1316 13.414 12.2621 13.3694 12.3839C13.3248 12.5058 13.2592 12.6166 13.1761 12.71L9.59323 16.71C9.42456 16.8983 9.19579 17.0041 8.95726 17.0041C8.71872 17.0041 8.48996 16.8983 8.32129 16.71C8.15262 16.5217 8.05786 16.2663 8.05786 16C8.05786 15.7337 8.15262 15.4783 8.32129 15.29L11.2772 12L8.33024 8.71001C8.1835 8.51871 8.10682 8.27264 8.11553 8.02096C8.12424 7.76929 8.21769 7.53055 8.37721 7.35245C8.53674 7.17436 8.75058 7.07003 8.97602 7.0603C9.20145 7.05058 9.42187 7.13619 9.59322 7.30001L13.1761 11.3C13.3416 11.4863 13.4349 11.7377 13.4359 12Z" fill="#F8B602"/>
</svg>
