<svg width="22" height="24" viewBox="0 0 22 24" fill="none" xmlns="http://www.w3.org/2000/svg">
<path d="M13.3209 12C13.3216 12.1316 13.2992 12.2621 13.255 12.3839C13.2108 12.5057 13.1457 12.6166 13.0633 12.71L9.51111 16.71C9.34388 16.8983 9.11708 17.0041 8.88058 17.0041C8.64409 17.0041 8.41729 16.8983 8.25006 16.71C8.08284 16.5217 7.98889 16.2663 7.98889 16C7.98889 15.7337 8.08284 15.4783 8.25006 15.29L11.1807 12L8.25894 8.71C8.11345 8.5187 8.03743 8.27262 8.04606 8.02095C8.0547 7.76927 8.14735 7.53053 8.30551 7.35244C8.46367 7.17434 8.67568 7.07001 8.89919 7.06029C9.12269 7.05057 9.34122 7.13617 9.51111 7.3L13.0633 11.3C13.2274 11.4863 13.3199 11.7377 13.3209 12Z" fill="#F8B602"/>
</svg>
