<svg width="76" height="74" viewBox="0 0 76 74" fill="none" xmlns="http://www.w3.org/2000/svg">
<path d="M6.83167e-07 1.97763C6.96359e-07 0.871335 0.897242 -0.0282258 2.00316 0.000677575C19.6033 0.460661 36.5322 6.97104 49.9195 18.4684C63.3069 29.9658 72.2993 45.7173 75.4121 63.0461C75.6077 64.135 74.8539 65.1578 73.7603 65.3248L17.1282 73.977C16.0346 74.1441 15.0254 73.3872 14.7172 72.3247C13.8917 69.4787 12.2536 66.918 9.98391 64.9687C7.7142 63.0195 4.93549 61.7869 1.99749 61.4007C0.900634 61.2565 -1.31924e-08 60.3731 0 59.2668L6.83167e-07 1.97763Z" fill="#00B074"/>
</svg>
