<svg width="6" height="6" viewBox="0 0 6 6" fill="none" xmlns="http://www.w3.org/2000/svg">
<g clip-path="url(#clip0_0_37)">
<path d="M0.888855 3.85357L2.62462 5.60352C2.71763 5.69726 2.84375 5.74991 2.97525 5.74991C3.10675 5.74991 3.23287 5.69726 3.32587 5.60352L5.06164 3.85357C5.15198 3.75927 5.20197 3.63297 5.20084 3.50188C5.19971 3.37078 5.14755 3.24538 5.0556 3.15268C4.96365 3.05997 4.83927 3.00739 4.70923 3.00625C4.5792 3.00511 4.45393 3.05551 4.36039 3.14658L3.47118 4.04306L3.47118 0.750143C3.47118 0.617538 3.41893 0.490365 3.32593 0.396599C3.23292 0.302833 3.10678 0.250155 2.97525 0.250155C2.84372 0.250155 2.71758 0.302832 2.62457 0.396599C2.53157 0.490365 2.47932 0.617538 2.47932 0.750143L2.47932 4.04306L1.59011 3.14658C1.49657 3.05551 1.3713 3.00511 1.24127 3.00625C1.11123 3.00739 0.986847 3.05997 0.894897 3.15268C0.802947 3.24538 0.75079 3.37078 0.74966 3.50187C0.74853 3.63297 0.798517 3.75927 0.888855 3.85357Z" fill="#FF5B5B"/>
</g>
<defs>
<clipPath id="clip0_0_37">
<rect width="5.64706" height="5.69322" fill="white" transform="translate(5.95111 6) scale(1.05386) rotate(-180)"/>
</clipPath>
</defs>
</svg>
