<svg width="132" height="61" viewBox="0 0 132 61" fill="none" xmlns="http://www.w3.org/2000/svg">
<g filter="url(#filter0_d_413_676)">
<path d="M4.99355 14C4.99355 6.26802 11.5727 0 19.6885 0H117.305C125.421 0 132 6.26801 132 14V47C132 54.732 125.421 61 117.305 61H19.6885C11.5727 61 4.99355 54.732 4.99355 47V14Z" fill="white"/>
<path d="M7.60217 38.1213C8.8319 36.9497 10.8257 36.9497 12.0554 38.1213L18.7353 44.4853C19.965 45.6569 19.965 47.5564 18.7353 48.7279L12.0554 55.0919C10.8257 56.2635 8.83189 56.2635 7.60217 55.0919L0.922297 48.7279C-0.307433 47.5563 -0.307432 45.6569 0.922298 44.4853L7.60217 38.1213Z" fill="white"/>
</g>
<defs>
<filter id="filter0_d_413_676" x="-8" y="-4" width="148" height="77" filterUnits="userSpaceOnUse" color-interpolation-filters="sRGB">
<feFlood flood-opacity="0" result="BackgroundImageFix"/>
<feColorMatrix in="SourceAlpha" type="matrix" values="0 0 0 0 0 0 0 0 0 0 0 0 0 0 0 0 0 0 127 0" result="hardAlpha"/>
<feOffset dy="4"/>
<feGaussianBlur stdDeviation="4"/>
<feColorMatrix type="matrix" values="0 0 0 0 0 0 0 0 0 0 0 0 0 0 0 0 0 0 0.12 0"/>
<feBlend mode="normal" in2="BackgroundImageFix" result="effect1_dropShadow_413_676"/>
<feBlend mode="normal" in="SourceGraphic" in2="effect1_dropShadow_413_676" result="shape"/>
</filter>
</defs>
</svg>
