<svg width="6" height="6" viewBox="0 0 6 6" fill="none" xmlns="http://www.w3.org/2000/svg">
<g clip-path="url(#clip0_0_43)">
<path d="M0.889113 2.85348C0.982114 2.94722 1.10823 2.99987 1.23974 2.99987C1.37124 2.99987 1.49736 2.94722 1.59036 2.85348L2.47957 1.95701L2.47957 5.24993C2.47957 5.38253 2.53182 5.50971 2.62483 5.60347C2.71783 5.69724 2.84398 5.74991 2.97551 5.74991C3.10704 5.74991 3.23318 5.69724 3.32618 5.60347C3.41919 5.50971 3.47144 5.38253 3.47144 5.24993L3.47144 1.95701L4.36065 2.85348C4.45418 2.94456 4.57946 2.99496 4.70949 2.99382C4.83952 2.99268 4.96391 2.9401 5.05586 2.84739C5.14781 2.75469 5.19997 2.62929 5.2011 2.49819C5.20223 2.3671 5.15224 2.2408 5.0619 2.1465L3.32613 0.396544C3.23313 0.302811 3.10701 0.250155 2.97551 0.250155C2.844 0.250155 2.71788 0.302811 2.62488 0.396544L0.889113 2.1465C0.79614 2.24026 0.74391 2.36741 0.74391 2.49999C0.74391 2.63257 0.79614 2.75972 0.889113 2.85348Z" fill="#00A389"/>
</g>
<defs>
<clipPath id="clip0_0_43">
<rect width="5.64706" height="5.69322" fill="white" transform="translate(5.95111 6) scale(1.05386) rotate(-180)"/>
</clipPath>
</defs>
</svg>
