<svg width="20" height="20" viewBox="0 0 20 20" fill="none" xmlns="http://www.w3.org/2000/svg">
<path d="M2.5 6.66634V16.6663C2.5 16.8874 2.5878 17.0993 2.74408 17.2556C2.90036 17.4119 3.11232 17.4997 3.33333 17.4997H7.5C7.72101 17.4997 7.93297 17.4119 8.08925 17.2556C8.24554 17.0993 8.33333 16.8874 8.33333 16.6663V10.833H11.6667V16.6663C11.6667 16.8874 11.7545 17.0993 11.9107 17.2556C12.067 17.4119 12.279 17.4997 12.5 17.4997H16.6667C16.8877 17.4997 17.0996 17.4119 17.2559 17.2556C17.4122 17.0993 17.5 16.8874 17.5 16.6663V6.66634C17.5 6.53697 17.4699 6.40938 17.412 6.29366C17.3542 6.17795 17.2702 6.0773 17.1667 5.99968L10.5 0.999675C10.3558 0.891489 10.1803 0.833008 10 0.833008C9.81969 0.833008 9.64425 0.891489 9.5 0.999675L2.83333 5.99968C2.72984 6.0773 2.64583 6.17795 2.58798 6.29366C2.53012 6.40938 2.5 6.53697 2.5 6.66634ZM4.16667 7.08301L10 2.70801L15.8333 7.08301V15.833H13.3333V9.99968C13.3333 9.77866 13.2455 9.5667 13.0893 9.41042C12.933 9.25414 12.721 9.16634 12.5 9.16634H7.5C7.27899 9.16634 7.06702 9.25414 6.91074 9.41042C6.75446 9.5667 6.66667 9.77866 6.66667 9.99968V15.833H4.16667V7.08301Z" fill="#00B074"/>
</svg>
