<svg width="24" height="24" viewBox="0 0 24 24" fill="none" xmlns="http://www.w3.org/2000/svg">
<path d="M11.9892 16.4717C11.7581 16.4697 11.5369 16.378 11.3722 16.216L2.64489 7.48875C2.48591 7.32415 2.39795 7.1037 2.39994 6.87487C2.40192 6.64605 2.49371 6.42716 2.65552 6.26535C2.81733 6.10353 3.03622 6.01175 3.26505 6.00976C3.49387 6.00777 3.71433 6.09574 3.87892 6.25471L11.9892 14.365L20.0994 6.25471C20.1799 6.17136 20.2762 6.10487 20.3827 6.05914C20.4892 6.0134 20.6037 5.98932 20.7196 5.98831C20.8355 5.98731 20.9504 6.00939 21.0576 6.05327C21.1649 6.09715 21.2623 6.16195 21.3443 6.2439C21.4262 6.32584 21.491 6.42328 21.5349 6.53054C21.5788 6.63779 21.6009 6.75271 21.5999 6.86859C21.5989 6.98447 21.5748 7.09899 21.529 7.20547C21.4833 7.31194 21.4168 7.40824 21.3335 7.48875L12.6062 16.216C12.4415 16.378 12.2202 16.4697 11.9892 16.4717Z" fill="#B9BBBD"/>
</svg>
