<svg width="34" height="34" viewBox="0 0 34 34" fill="none" xmlns="http://www.w3.org/2000/svg">
<path d="M8.5 29.7502H25.5C26.6272 29.7502 27.7082 29.3024 28.5052 28.5054C29.3022 27.7083 29.75 26.6273 29.75 25.5002V8.50016C29.75 7.37299 29.3022 6.29199 28.5052 5.49496C27.7082 4.69793 26.6272 4.25016 25.5 4.25016H24.0833C24.0833 3.87444 23.9341 3.5141 23.6684 3.24843C23.4027 2.98275 23.0424 2.8335 22.6667 2.8335C22.2909 2.8335 21.9306 2.98275 21.6649 3.24843C21.3993 3.5141 21.25 3.87444 21.25 4.25016H12.75C12.75 3.87444 12.6007 3.5141 12.3351 3.24843C12.0694 2.98275 11.7091 2.8335 11.3333 2.8335C10.9576 2.8335 10.5973 2.98275 10.3316 3.24843C10.0659 3.5141 9.91667 3.87444 9.91667 4.25016H8.5C7.37283 4.25016 6.29183 4.69793 5.4948 5.49496C4.69777 6.29199 4.25 7.37299 4.25 8.50016V25.5002C4.25 26.6273 4.69777 27.7083 5.4948 28.5054C6.29183 29.3024 7.37283 29.7502 8.5 29.7502ZM7.08333 8.50016C7.08333 8.12444 7.23259 7.76411 7.49827 7.49843C7.76394 7.23275 8.12428 7.0835 8.5 7.0835H9.91667V8.50016C9.91667 8.87589 10.0659 9.23622 10.3316 9.5019C10.5973 9.76757 10.9576 9.91683 11.3333 9.91683C11.7091 9.91683 12.0694 9.76757 12.3351 9.5019C12.6007 9.23622 12.75 8.87589 12.75 8.50016V7.0835H21.25V8.50016C21.25 8.87589 21.3993 9.23622 21.6649 9.5019C21.9306 9.76757 22.2909 9.91683 22.6667 9.91683C23.0424 9.91683 23.4027 9.76757 23.6684 9.5019C23.9341 9.23622 24.0833 8.87589 24.0833 8.50016V7.0835H25.5C25.8757 7.0835 26.2361 7.23275 26.5017 7.49843C26.7674 7.76411 26.9167 8.12444 26.9167 8.50016V12.7502H7.08333V8.50016ZM7.08333 15.5835H26.9167V25.5002C26.9167 25.8759 26.7674 26.2362 26.5017 26.5019C26.2361 26.7676 25.8757 26.9168 25.5 26.9168H8.5C8.12428 26.9168 7.76394 26.7676 7.49827 26.5019C7.23259 26.2362 7.08333 25.8759 7.08333 25.5002V15.5835Z" fill="#2D9CDB"/>
</svg>
