<svg width="77" height="91" viewBox="0 0 77 91" fill="none" xmlns="http://www.w3.org/2000/svg">
<path d="M44.1189 90.5195C41.9908 90.835 39.8132 90.9998 37.5974 90.9998C29.4919 90.9998 21.8983 88.8116 15.3711 84.9975C16.4028 81.169 18.3876 77.766 21.0334 75.0242C20.9209 75.1407 20.8091 75.2577 20.699 75.3764H47.9559L44.1189 90.5195Z" fill="#E9E3D5"/>
<path d="M59.8235 84.9979C58.8673 81.4494 57.0854 78.3305 54.8993 75.8234C53.4793 74.2329 52.0076 72.8858 50.1471 71.702C50.0196 71.6094 49.392 71.2291 49.1904 71.1112C39.7095 65.5517 27.9234 67.5698 20.6991 75.377C26.9575 77.9419 33.7247 79.1132 40.5226 78.7996C40.7764 78.865 41.0152 78.8938 41.2418 78.8938C42.8308 78.8938 44.1191 80.1821 44.1191 81.7711V90.52C49.7748 89.6811 55.0809 87.7694 59.8235 84.9979Z" fill="#D3CDBF"/>
<path d="M54.5262 87.6317C53.016 88.2602 51.4636 88.8072 49.874 89.2673V78.8937C52.1989 81.2454 53.8531 84.2615 54.5262 87.6317Z" fill="#A19B8D"/>
<path d="M25.3207 78.8937V89.2673C23.7311 88.8074 22.1787 88.2602 20.6685 87.6317C21.3416 84.2615 22.9956 81.2454 25.3207 78.8937Z" fill="#B6B0A2"/>
<path d="M38.3649 84.7451C39.1594 84.7451 39.8035 84.101 39.8035 83.3065C39.8035 82.512 39.1594 81.8679 38.3649 81.8679C37.5704 81.8679 36.9263 82.512 36.9263 83.3065C36.9263 84.101 37.5704 84.7451 38.3649 84.7451Z" fill="#3E4954"/>
<path d="M38.3649 90.4998C39.1594 90.4998 39.8035 89.8557 39.8035 89.0612C39.8035 88.2667 39.1594 87.6227 38.3649 87.6227C37.5704 87.6227 36.9263 88.2667 36.9263 89.0612C36.9263 89.8557 37.5704 90.4998 38.3649 90.4998Z" fill="#3E4954"/>
<path d="M65.2197 47.678C65.2197 32.807 53.1563 16.9864 38.3645 16.9864C26.0965 16.9864 15.7505 27.8375 12.5401 39.9821C11.3665 39.385 10.0392 39.046 8.63204 39.046C3.86475 39.046 0 42.9105 0 47.678C0 52.4455 3.86456 56.31 8.63204 56.31C8.87927 56.31 9.12328 56.2972 9.36522 56.2768C9.60583 61.2189 12.2501 65.923 16.8845 68.6705C30.0708 76.4874 46.6583 76.4874 59.8446 68.6705C67.2456 64.2832 69.5232 54.983 65.2197 47.678Z" fill="#FFB578"/>
<path d="M68.0971 39.0465C66.6891 39.0465 65.3611 39.3858 64.187 39.9838C62.06 31.9354 56.8028 24.4696 49.9409 20.3393C49.9409 20.3393 57.3449 29.074 57.3449 45.7614C57.3449 50.8634 54.614 55.7845 49.8074 58.6337C37.6989 65.8115 22.723 66.3971 10.1457 60.3927C11.2726 63.7341 13.5674 66.7044 16.8848 68.6709C30.0711 76.4877 46.6585 76.4877 59.8446 68.6709C64.5007 65.9107 67.1269 61.2062 67.3645 56.2773C67.6062 56.2977 67.85 56.3106 68.0971 56.3106C72.8644 56.3106 76.7291 52.446 76.7291 47.6785C76.7291 42.911 72.8644 39.0465 68.0971 39.0465Z" fill="#F7A16E"/>
<path d="M8.63235 50.5571C10.2215 50.5571 11.5097 49.2689 11.5097 47.6798C11.5097 46.0907 10.2215 44.8024 8.63235 44.8024C7.04324 44.8024 5.75501 46.0907 5.75501 47.6798C5.75501 49.2689 7.04324 50.5571 8.63235 50.5571Z" fill="#F7A16E"/>
<path d="M68.0973 50.5571C69.6864 50.5571 70.9747 49.2689 70.9747 47.6798C70.9747 46.0907 69.6864 44.8024 68.0973 44.8024C66.5082 44.8024 65.22 46.0907 65.22 47.6798C65.22 49.2689 66.5082 50.5571 68.0973 50.5571Z" fill="#CE795F"/>
<path d="M12.5401 39.9715C14.4773 40.9571 15.9924 42.6516 16.7439 44.7135C17.0881 45.6582 18.2736 45.9818 19.0304 45.32C22.6498 42.1562 24.9371 37.5068 24.9371 32.3216C24.9371 29.098 24.0525 26.0815 22.5143 23.4994C22.5143 23.4996 10.8851 26.7127 12.5401 39.9715Z" fill="#596775"/>
<path d="M54.2149 23.5004C52.6769 26.0823 51.7921 29.099 51.7921 32.3226C51.7921 37.5078 54.0792 42.1571 57.6988 45.321C58.456 45.9828 59.6413 45.6592 59.9853 44.7145C60.7364 42.6523 62.2519 40.958 64.1891 39.9725C65.8443 26.7134 54.2149 23.5004 54.2149 23.5004Z" fill="#46525E"/>
<path d="M63.3016 11.2219H13.4279V31.7374H63.3016V11.2219Z" fill="#E9E3D5"/>
<path d="M62.2464 0C60.8551 0 15.219 0 14.4826 0C9.66242 0 5.75476 3.90766 5.75476 8.72787C5.75476 13.5481 9.66242 17.4557 14.4826 17.4557C14.8525 17.4557 61.2938 17.4557 62.2464 17.4557C67.0666 17.4557 70.9743 13.5481 70.9743 8.72787C70.9743 3.90766 67.0666 0 62.2464 0Z" fill="#E9E3D5"/>
<path d="M70.9743 8.72738C70.9743 7.21168 70.5874 5.78653 69.9077 4.54452C68.0398 5.01932 66.6582 6.71193 66.6582 8.72738C66.6582 11.16 64.679 13.1393 62.2462 13.1393H14.4826C12.4672 13.1393 10.7746 14.521 10.2998 16.3888C11.5418 17.0685 12.9669 17.4554 14.4826 17.4554H23.0186H38.3644C48.9465 17.4554 61.2722 17.4554 62.2462 17.4554C67.0666 17.4552 70.9743 13.5478 70.9743 8.72738Z" fill="#D3CDBF"/>
<path d="M15.7295 8.72742C15.7295 7.93281 15.0853 7.28884 14.2909 7.28884C13.4963 7.28884 12.8523 7.933 12.8523 8.72742C12.8523 11.1192 13.6846 13.3193 15.0723 15.0575H19.4118C17.2144 13.8005 15.7295 11.435 15.7295 8.72742Z" fill="#D3CDBF"/>
<path d="M63.8768 8.72742C63.8768 7.93281 63.2327 7.28884 62.4383 7.28884C61.6438 7.28884 60.9997 7.933 60.9997 8.72742C60.9997 11.435 59.5148 13.8005 57.3177 15.0575H61.6573C63.0446 13.3193 63.8768 11.1194 63.8768 8.72742Z" fill="#D3CDBF"/>
<path d="M53.7102 7.28884C52.9156 7.28884 52.2717 7.933 52.2717 8.72742C52.2717 11.435 50.7868 13.8005 48.5897 15.0575H52.9292C54.3168 13.3191 55.1492 11.1192 55.1492 8.72742C55.149 7.933 54.5049 7.28884 53.7102 7.28884Z" fill="#D3CDBF"/>
<path d="M27.2388 8.72742C27.2388 7.93281 26.5946 7.28884 25.8002 7.28884C25.0058 7.28884 24.3616 7.933 24.3616 8.72742C24.3616 11.1192 25.1938 13.3193 26.5816 15.0575H30.9211C28.7239 13.8005 27.2388 11.435 27.2388 8.72742Z" fill="#D3CDBF"/>
</svg>
