<svg width="20" height="20" viewBox="0 0 20 20" fill="none" xmlns="http://www.w3.org/2000/svg">
<path d="M10 9.99986C10.4603 9.99986 10.8334 9.62676 10.8334 9.16652C10.8334 8.70629 10.4603 8.33319 10 8.33319C9.5398 8.33319 9.1667 8.70629 9.1667 9.16652C9.1667 9.62676 9.5398 9.99986 10 9.99986Z" fill="#464255"/>
<path d="M6.66663 9.99986C7.12687 9.99986 7.49996 9.62676 7.49996 9.16652C7.49996 8.70629 7.12687 8.33319 6.66663 8.33319C6.20639 8.33319 5.8333 8.70629 5.8333 9.16652C5.8333 9.62676 6.20639 9.99986 6.66663 9.99986Z" fill="#464255"/>
<path d="M13.3333 9.99986C13.7936 9.99986 14.1667 9.62676 14.1667 9.16652C14.1667 8.70629 13.7936 8.33319 13.3333 8.33319C12.8731 8.33319 12.5 8.70629 12.5 9.16652C12.5 9.62676 12.8731 9.99986 13.3333 9.99986Z" fill="#464255"/>
<path d="M2.54158 18.225C2.716 18.297 2.9029 18.3338 3.09158 18.3333C3.27766 18.3343 3.46203 18.2979 3.63379 18.2263C3.80555 18.1547 3.96122 18.0494 4.09158 17.9167L6.17491 15.8333H14.1666C15.2716 15.8333 16.3315 15.3943 17.1129 14.6129C17.8943 13.8315 18.3332 12.7717 18.3332 11.6667V6.66667C18.3332 5.5616 17.8943 4.50179 17.1129 3.72039C16.3315 2.93899 15.2716 2.5 14.1666 2.5H5.83325C4.72818 2.5 3.66837 2.93899 2.88697 3.72039C2.10557 4.50179 1.66658 5.5616 1.66658 6.66667V16.9083C1.66394 17.1902 1.74592 17.4663 1.90191 17.701C2.0579 17.9358 2.28073 18.1183 2.54158 18.225ZM3.33325 6.66667C3.33325 6.00363 3.59664 5.36774 4.06548 4.8989C4.53432 4.43006 5.17021 4.16667 5.83325 4.16667H14.1666C14.8296 4.16667 15.4655 4.43006 15.9343 4.8989C16.4032 5.36774 16.6666 6.00363 16.6666 6.66667V11.6667C16.6666 12.3297 16.4032 12.9656 15.9343 13.4344C15.4655 13.9033 14.8296 14.1667 14.1666 14.1667H5.83325C5.72358 14.166 5.61486 14.1871 5.51333 14.2285C5.41179 14.27 5.31945 14.3311 5.24158 14.4083L3.33325 16.325V6.66667Z" fill="#464255"/>
</svg>
