<svg width="85" height="85" viewBox="0 0 85 85" fill="none" xmlns="http://www.w3.org/2000/svg">
<ellipse cx="42.1554" cy="42.5" rx="42.1554" ry="42.5" fill="#00B074" fill-opacity="0.15"/>
<path d="M37.5113 23.9522C36.9819 23.9522 36.566 23.4819 36.566 22.8833V20.1897C36.566 17.2823 34.4862 14.9308 31.9526 14.9308C30.7047 14.9308 29.5703 15.4866 28.6627 16.47C27.7552 17.4533 27.3014 18.7788 27.3014 20.1897V22.8833C27.3014 23.4819 26.8854 23.9522 26.356 23.9522C25.8266 23.9522 25.4106 23.4819 25.4106 22.8833V20.1897C25.4106 18.2229 26.0913 16.3844 27.3014 14.9735C28.5493 13.5626 30.1753 12.793 31.9148 12.793C35.5072 12.793 38.4189 16.0852 38.4189 20.1469V22.8406C38.4567 23.4819 38.0408 23.9522 37.5113 23.9522Z" fill="#FFD497"/>
<path d="M52.3725 59.9953H24.8056L20.23 20.0615H50.4439L52.3725 59.9953Z" fill="#00B074"/>
<path d="M24.8053 59.9953L18.2634 58.7127L11.6836 59.9953L13.65 20.0615H22.8389L24.8053 59.9953Z" fill="#0A5239"/>
<path d="M36.7927 33.8292C33.2003 33.8292 30.2886 30.537 30.2886 26.4752V23.7816C30.2886 23.183 30.7045 22.7127 31.2339 22.7127C31.7633 22.7127 32.1793 23.183 32.1793 23.7816V26.4752C32.1793 29.3826 34.2591 31.6914 36.7927 31.6914C39.3263 31.6914 41.4439 29.3398 41.4439 26.4324V23.7388C41.4439 23.1402 41.8599 22.6699 42.3893 22.6699C42.9187 22.6699 43.3346 23.1402 43.3346 23.7388V26.4324C43.3346 30.537 40.4229 33.8292 36.7927 33.8292Z" fill="white"/>
<path opacity="0.1" d="M38.4946 54.523C38.4946 56.4897 38.9484 58.371 39.7425 59.9957H52.4104L51.6163 43.5775C50.671 43.2355 49.6878 43.0645 48.6668 43.0645C43.0324 43.0645 38.4946 48.1951 38.4946 54.523Z" fill="#0C1E5B"/>
<path d="M53.9229 65.9815C59.5199 65.9815 64.0572 60.8513 64.0572 54.523C64.0572 48.1946 59.5199 43.0645 53.9229 43.0645C48.3259 43.0645 43.7886 48.1946 43.7886 54.523C43.7886 60.8513 48.3259 65.9815 53.9229 65.9815Z" fill="#FF6966"/>
<path d="M52.8638 58.9689C52.5613 58.9689 52.2966 58.8406 52.0697 58.5841L48.8555 54.9499C48.4017 54.4368 48.4017 53.6244 48.8555 53.1541C49.3092 52.6411 50.0277 52.6411 50.4437 53.1541L52.8638 55.8905L57.4016 50.7598C57.8554 50.2467 58.5739 50.2467 58.9898 50.7598C59.4436 51.2729 59.4436 52.0852 58.9898 52.5555L53.6579 58.5841C53.4311 58.8406 53.1285 58.9689 52.8638 58.9689Z" fill="white"/>
</svg>
