<svg width="20" height="20" viewBox="0 0 20 20" fill="none" xmlns="http://www.w3.org/2000/svg">
<path d="M12.975 9.72483C13.688 9.1164 14.1974 8.30396 14.4344 7.39706C14.6714 6.49015 14.6246 5.53238 14.3004 4.65288C13.9761 3.77338 13.39 3.01444 12.6211 2.47838C11.8521 1.94231 10.9373 1.65491 9.99996 1.65491C9.0626 1.65491 8.14777 1.94231 7.37882 2.47838C6.60987 3.01444 6.02377 3.77338 5.69954 4.65288C5.37531 5.53238 5.32854 6.49015 5.56554 7.39706C5.80253 8.30396 6.3119 9.1164 7.02496 9.72483C5.45018 10.3267 4.09498 11.392 3.13831 12.7802C2.18164 14.1683 1.66849 15.814 1.66663 17.4998C1.66663 17.7208 1.75442 17.9328 1.9107 18.0891C2.06698 18.2454 2.27895 18.3332 2.49996 18.3332C2.72097 18.3332 2.93293 18.2454 3.08922 18.0891C3.2455 17.9328 3.33329 17.7208 3.33329 17.4998C3.33329 15.7317 4.03567 14.036 5.28591 12.7858C6.53616 11.5355 8.23185 10.8332 9.99996 10.8332C11.7681 10.8332 13.4638 11.5355 14.714 12.7858C15.9642 14.036 16.6666 15.7317 16.6666 17.4998C16.6666 17.7208 16.7544 17.9328 16.9107 18.0891C17.067 18.2454 17.2789 18.3332 17.5 18.3332C17.721 18.3332 17.9329 18.2454 18.0892 18.0891C18.2455 17.9328 18.3333 17.7208 18.3333 17.4998C18.3314 15.814 17.8183 14.1683 16.8616 12.7802C15.9049 11.392 14.5497 10.3267 12.975 9.72483ZM9.99996 9.1665C9.4231 9.1665 8.85919 8.99544 8.37955 8.67495C7.8999 8.35447 7.52607 7.89894 7.30531 7.36599C7.08456 6.83304 7.0268 6.2466 7.13934 5.68082C7.25188 5.11504 7.52966 4.59534 7.93757 4.18744C8.34547 3.77953 8.86517 3.50175 9.43095 3.38921C9.99673 3.27667 10.5832 3.33443 11.1161 3.55518C11.6491 3.77594 12.1046 4.14978 12.4251 4.62942C12.7456 5.10906 12.9166 5.67297 12.9166 6.24983C12.9166 7.02338 12.6093 7.76525 12.0624 8.31223C11.5154 8.85921 10.7735 9.1665 9.99996 9.1665Z" fill="#464255"/>
</svg>
