<svg width="28" height="28" viewBox="0 0 28 28" fill="none" xmlns="http://www.w3.org/2000/svg">
<path d="M4.66667 23.3333H11.6667C11.6667 23.9522 11.9125 24.5457 12.3501 24.9832C12.7877 25.4208 13.3812 25.6667 14 25.6667C14.6188 25.6667 15.2123 25.4208 15.6499 24.9832C16.0875 24.5457 16.3333 23.9522 16.3333 23.3333H23.3333C23.6428 23.3333 23.9395 23.2104 24.1583 22.9916C24.3771 22.7728 24.5 22.4761 24.5 22.1667C24.5 21.8572 24.3771 21.5605 24.1583 21.3417C23.9395 21.1229 23.6428 21 23.3333 21V12.8333C23.3333 10.358 22.35 7.98401 20.5997 6.23367C18.8493 4.48333 16.4754 3.5 14 3.5C11.5246 3.5 9.15068 4.48333 7.40034 6.23367C5.65 7.98401 4.66667 10.358 4.66667 12.8333V21C4.35725 21 4.0605 21.1229 3.84171 21.3417C3.62292 21.5605 3.5 21.8572 3.5 22.1667C3.5 22.4761 3.62292 22.7728 3.84171 22.9916C4.0605 23.2104 4.35725 23.3333 4.66667 23.3333ZM7 12.8333C7 10.9768 7.7375 9.19634 9.05025 7.88359C10.363 6.57083 12.1435 5.83333 14 5.83333C15.8565 5.83333 17.637 6.57083 18.9497 7.88359C20.2625 9.19634 21 10.9768 21 12.8333V21H7V12.8333Z" fill="#2D9CDB"/>
</svg>
