<svg width="89" height="85" viewBox="0 0 89 85" fill="none" xmlns="http://www.w3.org/2000/svg">
<ellipse cx="46.7885" cy="42.5" rx="42.1554" ry="42.5" fill="#00B074" fill-opacity="0.15"/>
<path d="M5.1311 64.2747C7.9549 64.2747 10.2621 61.6627 10.2621 58.466V21.041H40.222V58.466C40.222 61.6627 37.9147 64.2747 35.0909 64.2747" fill="#00B074"/>
<path d="M29.9598 58.4658V54.0605H0V58.4658C0 61.6625 2.30725 64.2745 5.13105 64.2745H35.0909C32.2671 64.2745 29.9598 61.6625 29.9598 58.4658Z" fill="#0A5239"/>
<path d="M19.4567 28.4873H15.6343V30.3586H19.4567V28.4873Z" fill="white"/>
<path d="M34.1611 28.4873H22.4182V30.3586H34.1611V28.4873Z" fill="#F7C604"/>
<path d="M19.4567 35.1143H15.6343V36.9855H19.4567V35.1143Z" fill="white"/>
<path d="M34.1611 35.1143H22.4182V36.9855H34.1611V35.1143Z" fill="#F7C604"/>
<path d="M19.4567 41.7412H15.6343V43.6125H19.4567V41.7412Z" fill="white"/>
<path d="M34.1611 41.7412H22.4182V43.6125H34.1611V41.7412Z" fill="#F7C604"/>
<path d="M19.4567 48.3691H15.6343V50.2404H19.4567V48.3691Z" fill="white"/>
<path d="M34.1611 48.3691H22.4182V50.2404H34.1611V48.3691Z" fill="#F7C604"/>
<path opacity="0.1" d="M40.2219 48.6807V26.4207C39.8087 26.3427 39.361 26.3037 38.9133 26.3037C33.4379 26.3037 28.9956 31.3327 28.9956 37.5312C28.9956 43.7297 33.4379 48.7587 38.9133 48.7587C39.361 48.7977 39.8087 48.7587 40.2219 48.6807Z" fill="#0C1E5B"/>
<path d="M42.3919 46.5373C47.8694 46.5373 52.3098 41.5105 52.3098 35.3096C52.3098 29.1088 47.8694 24.082 42.3919 24.082C36.9145 24.082 32.4741 29.1088 32.4741 35.3096C32.4741 41.5105 36.9145 46.5373 42.3919 46.5373Z" fill="#FF5B5B"/>
<path d="M44.1477 36.0886V29.1104H40.6351V36.0886H38.2935L42.3914 41.5074L46.4894 36.0886H44.1477Z" fill="white"/>
</svg>
