<svg width="20" height="20" viewBox="0 0 20 20" fill="none" xmlns="http://www.w3.org/2000/svg">
<path d="M5 17.5H15C15.663 17.5 16.2989 17.2366 16.7678 16.7678C17.2366 16.2989 17.5 15.6631 17.5 15V5.00002C17.5 4.33698 17.2366 3.70109 16.7678 3.23225C16.2989 2.76341 15.663 2.50002 15 2.50002H14.1667C14.1667 2.27901 14.0789 2.06705 13.9226 1.91076C13.7663 1.75448 13.5543 1.66669 13.3333 1.66669C13.1123 1.66669 12.9004 1.75448 12.7441 1.91076C12.5878 2.06705 12.5 2.27901 12.5 2.50002H7.5C7.5 2.27901 7.4122 2.06705 7.25592 1.91076C7.09964 1.75448 6.88768 1.66669 6.66667 1.66669C6.44565 1.66669 6.23369 1.75448 6.07741 1.91076C5.92113 2.06705 5.83333 2.27901 5.83333 2.50002H5C4.33696 2.50002 3.70107 2.76341 3.23223 3.23225C2.76339 3.70109 2.5 4.33698 2.5 5.00002V15C2.5 15.6631 2.76339 16.2989 3.23223 16.7678C3.70107 17.2366 4.33696 17.5 5 17.5ZM4.16667 5.00002C4.16667 4.77901 4.25446 4.56705 4.41074 4.41077C4.56702 4.25448 4.77899 4.16669 5 4.16669H5.83333V5.00002C5.83333 5.22103 5.92113 5.433 6.07741 5.58928C6.23369 5.74556 6.44565 5.83335 6.66667 5.83335C6.88768 5.83335 7.09964 5.74556 7.25592 5.58928C7.4122 5.433 7.5 5.22103 7.5 5.00002V4.16669H12.5V5.00002C12.5 5.22103 12.5878 5.433 12.7441 5.58928C12.9004 5.74556 13.1123 5.83335 13.3333 5.83335C13.5543 5.83335 13.7663 5.74556 13.9226 5.58928C14.0789 5.433 14.1667 5.22103 14.1667 5.00002V4.16669H15C15.221 4.16669 15.433 4.25448 15.5893 4.41077C15.7455 4.56705 15.8333 4.77901 15.8333 5.00002V7.50002H4.16667V5.00002ZM4.16667 9.16669H15.8333V15C15.8333 15.221 15.7455 15.433 15.5893 15.5893C15.433 15.7456 15.221 15.8334 15 15.8334H5C4.77899 15.8334 4.56702 15.7456 4.41074 15.5893C4.25446 15.433 4.16667 15.221 4.16667 15V9.16669Z" fill="#464255"/>
</svg>
