<svg width="20" height="20" viewBox="0 0 20 20" fill="none" xmlns="http://www.w3.org/2000/svg">
<path d="M10.5416 1.86699C10.3906 1.7379 10.1985 1.66698 9.99992 1.66699H4.16659C3.94557 1.66699 3.73361 1.75479 3.57733 1.91107C3.42105 2.06735 3.33325 2.27931 3.33325 2.50033V17.5003C3.33325 17.7213 3.42105 17.9333 3.57733 18.0896C3.73361 18.2459 3.94557 18.3337 4.16659 18.3337H15.8333C16.0543 18.3337 16.2662 18.2459 16.4225 18.0896C16.5788 17.9333 16.6666 17.7213 16.6666 17.5003V7.50033C16.6666 7.37996 16.6405 7.26102 16.5902 7.15169C16.5398 7.04236 16.4664 6.94523 16.3749 6.86699L10.5416 1.86699ZM10.8333 4.30866L13.5833 6.66699H10.8333V4.30866ZM14.9999 16.667H4.99992V3.33366H9.16659V7.50033C9.16659 7.72134 9.25438 7.9333 9.41066 8.08958C9.56694 8.24586 9.77891 8.33366 9.99992 8.33366H14.9999V16.667Z" fill="#464255"/>
</svg>
