<svg width="77" height="91" viewBox="0 0 77 91" fill="none" xmlns="http://www.w3.org/2000/svg">
<path d="M44.119 90.5198C41.9909 90.8352 39.8133 91 37.5974 91C29.492 91 21.8984 88.8118 15.3712 84.9977C16.4028 81.1693 18.3876 77.7663 21.0334 75.0244C20.921 75.1409 20.8091 75.2579 20.6991 75.3766H47.956L44.119 90.5198Z" fill="#E9E3D5"/>
<path d="M59.8237 84.9977C58.8675 81.4491 57.0857 78.3302 54.8995 75.8232C53.4795 74.2326 52.0078 72.8855 50.1474 71.7017C50.0198 71.6091 49.3923 71.2288 49.1906 71.1109C39.7097 65.5514 27.9235 67.5695 20.6992 75.3767C26.9577 77.9416 33.7249 79.1129 40.5228 78.7994C40.7766 78.8648 41.0154 78.8935 41.242 78.8935C42.831 78.8935 44.1193 80.1818 44.1193 81.7708V90.5197C49.775 89.6809 55.0812 87.7692 59.8237 84.9977Z" fill="#D3CDBF"/>
<path d="M54.5264 87.6317C53.0162 88.2602 51.4639 88.8072 49.8743 89.2673V78.8936C52.1991 81.2453 53.8534 84.2614 54.5264 87.6317Z" fill="#A19B8D"/>
<path d="M25.3208 78.8936V89.2673C23.7312 88.8074 22.1789 88.2602 20.6686 87.6317C21.3417 84.2614 22.9958 81.2453 25.3208 78.8936Z" fill="#B6B0A2"/>
<path d="M38.365 84.7453C39.1595 84.7453 39.8036 84.1012 39.8036 83.3067C39.8036 82.5122 39.1595 81.8681 38.365 81.8681C37.5705 81.8681 36.9265 82.5122 36.9265 83.3067C36.9265 84.1012 37.5705 84.7453 38.365 84.7453Z" fill="#3E4954"/>
<path d="M38.365 90.4998C39.1595 90.4998 39.8036 89.8557 39.8036 89.0612C39.8036 88.2667 39.1595 87.6227 38.365 87.6227C37.5705 87.6227 36.9264 88.2667 36.9264 89.0612C36.9264 89.8557 37.5705 90.4998 38.365 90.4998Z" fill="#3E4954"/>
<path d="M65.2199 47.6785C65.2199 32.8075 53.1565 16.9868 38.3647 16.9868C26.0965 16.9868 15.7505 27.8379 12.5401 39.9826C11.3665 39.3855 10.0393 39.0464 8.63206 39.0464C3.86476 39.0464 0 42.911 0 47.6785C0 52.446 3.86457 56.3106 8.63206 56.3106C8.87929 56.3106 9.12331 56.2977 9.36524 56.2773C9.60586 61.2194 12.2502 65.9236 16.8846 68.6711C30.0709 76.4879 46.6584 76.4879 59.8447 68.6711C67.2457 64.2837 69.5233 54.9835 65.2199 47.6785Z" fill="#FFB578"/>
<path d="M68.0972 39.0465C66.6893 39.0465 65.3613 39.3858 64.1871 39.9838C62.0601 31.9354 56.8029 24.4696 49.941 20.3392C49.941 20.3392 57.345 29.0739 57.345 45.7614C57.345 50.8634 54.6141 55.7846 49.8075 58.6338C37.6989 65.8116 22.723 66.3971 10.1457 60.3927C11.2726 63.7341 13.5674 66.7044 16.8848 68.6709C30.0711 76.4878 46.6586 76.4878 59.8447 68.6709C64.5009 65.9108 67.127 61.2062 67.3646 56.2773C67.6064 56.2977 67.8502 56.3106 68.0972 56.3106C72.8645 56.3106 76.7293 52.446 76.7293 47.6785C76.7293 42.911 72.8645 39.0465 68.0972 39.0465Z" fill="#F7A16E"/>
<path d="M8.63244 50.5569C10.2216 50.5569 11.5098 49.2686 11.5098 47.6795C11.5098 46.0904 10.2216 44.8022 8.63244 44.8022C7.04332 44.8022 5.75508 46.0904 5.75508 47.6795C5.75508 49.2686 7.04332 50.5569 8.63244 50.5569Z" fill="#F7A16E"/>
<path d="M68.0974 50.5568C69.6865 50.5568 70.9748 49.2685 70.9748 47.6794C70.9748 46.0903 69.6865 44.8021 68.0974 44.8021C66.5083 44.8021 65.2201 46.0903 65.2201 47.6794C65.2201 49.2685 66.5083 50.5568 68.0974 50.5568Z" fill="#CE795F"/>
<path d="M12.5401 39.972C14.4773 40.9575 15.9924 42.652 16.744 44.714C17.0881 45.6587 18.2736 45.9823 19.0304 45.3205C22.6499 42.1566 24.9371 37.5073 24.9371 32.3221C24.9371 29.0984 24.0525 26.082 22.5143 23.4999C22.5143 23.5 10.8851 26.7131 12.5401 39.972Z" fill="#596775"/>
<path d="M54.2149 23.5001C52.6769 26.082 51.7922 29.0987 51.7922 32.3223C51.7922 37.5075 54.0792 42.1569 57.6988 45.3208C58.456 45.9825 59.6413 45.6589 59.9853 44.7142C60.7365 42.6521 62.252 40.9578 64.1892 39.9723C65.8444 26.7131 54.2149 23.5001 54.2149 23.5001Z" fill="#46525E"/>
<path d="M63.3018 11.2215H13.4279V31.7371H63.3018V11.2215Z" fill="#E9E3D5"/>
<path d="M62.2467 0C60.8554 0 15.2192 0 14.4828 0C9.66257 0 5.7549 3.90767 5.7549 8.72789C5.7549 13.5481 9.66257 17.4558 14.4828 17.4558C14.8527 17.4558 61.2941 17.4558 62.2467 17.4558C67.0669 17.4558 70.9746 13.5481 70.9746 8.72789C70.9746 3.90767 67.0669 0 62.2467 0Z" fill="#E9E3D5"/>
<path d="M70.9746 8.72789C70.9746 7.21219 70.5877 5.78703 69.908 4.54502C68.0402 5.01982 66.6585 6.71244 66.6585 8.72789C66.6585 11.1605 64.6793 13.1398 62.2465 13.1398H14.4828C12.4673 13.1398 10.7747 14.5215 10.2999 16.3894C11.5419 17.0691 12.9671 17.456 14.4828 17.456H23.0188H38.3647C48.9468 17.456 61.2725 17.456 62.2465 17.456C67.0669 17.4558 70.9746 13.5483 70.9746 8.72789Z" fill="#D3CDBF"/>
<path d="M15.7297 8.72794C15.7297 7.93332 15.0856 7.28935 14.2911 7.28935C13.4965 7.28935 12.8526 7.93351 12.8526 8.72794C12.8526 11.1197 13.6848 13.3198 15.0725 15.058H19.4121C17.2146 13.8011 15.7297 11.4356 15.7297 8.72794Z" fill="#D3CDBF"/>
<path d="M63.8771 8.72794C63.8771 7.93332 63.233 7.28935 62.4386 7.28935C61.6441 7.28935 61 7.93351 61 8.72794C61 11.4356 59.5151 13.8011 57.318 15.058H61.6576C63.0449 13.3198 63.8771 11.1199 63.8771 8.72794Z" fill="#D3CDBF"/>
<path d="M53.7105 7.28935C52.9159 7.28935 52.2719 7.93351 52.2719 8.72794C52.2719 11.4356 50.787 13.8011 48.5899 15.058H52.9295C54.317 13.3196 55.1494 11.1197 55.1494 8.72794C55.1493 7.93351 54.5051 7.28935 53.7105 7.28935Z" fill="#D3CDBF"/>
<path d="M27.2389 8.72794C27.2389 7.93332 26.5948 7.28935 25.8004 7.28935C25.0059 7.28935 24.3618 7.93351 24.3618 8.72794C24.3618 11.1197 25.194 13.3198 26.5817 15.058H30.9213C28.724 13.8011 27.2389 11.4356 27.2389 8.72794Z" fill="#D3CDBF"/>
</svg>
