<svg width="85" height="85" viewBox="0 0 85 85" fill="none" xmlns="http://www.w3.org/2000/svg">
<ellipse cx="42.1554" cy="42.5" rx="42.1554" ry="42.5" fill="#00B074" fill-opacity="0.15"/>
<path d="M5.78955 64.2747C8.61335 64.2747 10.9206 61.6627 10.9206 58.466V21.041H40.8804V58.466C40.8804 61.6627 38.5731 64.2747 35.7493 64.2747" fill="#00B074"/>
<path d="M30.6185 58.4658V54.0605H0.658691V58.4658C0.658691 61.6625 2.96594 64.2745 5.78974 64.2745H35.7495C32.9257 64.2745 30.6185 61.6625 30.6185 58.4658Z" fill="#0A5239"/>
<path d="M20.1154 28.4873H16.293V30.3586H20.1154V28.4873Z" fill="#F7C604"/>
<path d="M34.8195 28.4873H23.0767V30.3586H34.8195V28.4873Z" fill="#F3F2F7"/>
<path d="M20.1154 35.1143H16.293V36.9855H20.1154V35.1143Z" fill="#F7C604"/>
<path d="M34.8195 35.1143H23.0767V36.9855H34.8195V35.1143Z" fill="#F3F2F7"/>
<path d="M20.1154 41.7422H16.293V43.6134H20.1154V41.7422Z" fill="#F7C604"/>
<path d="M34.8195 41.7422H23.0767V43.6134H34.8195V41.7422Z" fill="#F3F2F7"/>
<path d="M20.1154 48.3691H16.293V50.2404H20.1154V48.3691Z" fill="#F7C604"/>
<path d="M34.8195 48.3691H23.0767V50.2404H34.8195V48.3691Z" fill="#F3F2F7"/>
<path opacity="0.1" d="M40.8806 48.6807V26.4207C40.4674 26.3427 40.0197 26.3037 39.572 26.3037C34.0966 26.3037 29.6543 31.3327 29.6543 37.5312C29.6543 43.7297 34.0966 48.7587 39.572 48.7587C40.0197 48.7977 40.4674 48.7587 40.8806 48.6807Z" fill="#0C1E5B"/>
<path d="M43.0506 46.5373C48.5281 46.5373 52.9685 41.5105 52.9685 35.3096C52.9685 29.1088 48.5281 24.082 43.0506 24.082C37.5732 24.082 33.1328 29.1088 33.1328 35.3096C33.1328 41.5105 37.5732 46.5373 43.0506 46.5373Z" fill="#FF5B5B"/>
<path d="M46.8067 30.7305L37.7271 39.8843M37.7271 30.7305L46.8067 39.8843" stroke="white" stroke-width="4"/>
<path d="M46.8067 30.7305L37.7271 39.8843M37.7271 30.7305L46.8067 39.8843" stroke="white" stroke-width="4"/>
</svg>
