<svg width="20" height="20" viewBox="0 0 20 20" fill="none" xmlns="http://www.w3.org/2000/svg">
<path d="M15.9915 13.9252C16.4242 13.4087 16.6629 12.7573 16.6665 12.0835C16.6665 11.31 16.3592 10.5681 15.8122 10.0211C15.2653 9.47414 14.5234 9.16685 13.7498 9.16685H13.5165C14.2037 8.35018 14.5814 7.31754 14.5832 6.25019C14.5851 5.48064 14.3933 4.723 14.0253 4.04712C13.6574 3.37124 13.1251 2.79889 12.4778 2.38285C11.8304 1.9668 11.0887 1.72046 10.321 1.66654C9.55335 1.61262 8.78447 1.75285 8.08529 2.07431C7.3861 2.39577 6.7791 2.8881 6.32028 3.5059C5.86145 4.12371 5.56557 4.84709 5.45992 5.60935C5.35427 6.37161 5.44224 7.1482 5.71574 7.86751C5.98923 8.58681 6.43944 9.22568 7.02484 9.72519C5.45006 10.327 4.09486 11.3924 3.13819 12.7805C2.18151 14.1687 1.66837 15.8143 1.6665 17.5002C1.6665 17.7212 1.7543 17.9332 1.91058 18.0894C2.06686 18.2457 2.27882 18.3335 2.49984 18.3335C2.72085 18.3335 2.93281 18.2457 3.08909 18.0894C3.24537 17.9332 3.33317 17.7212 3.33317 17.5002C3.33317 15.7321 4.03555 14.0364 5.28579 12.7861C6.53604 11.5359 8.23173 10.8335 9.99984 10.8335H11.1248C10.8807 11.3302 10.787 11.8873 10.8551 12.4366C10.9232 12.9858 11.1502 13.5032 11.5082 13.9252C10.7982 14.3223 10.207 14.9015 9.7954 15.6031C9.3838 16.3047 9.16671 17.1034 9.1665 17.9168C9.1665 18.1379 9.2543 18.3498 9.41058 18.5061C9.56686 18.6624 9.77882 18.7502 9.99984 18.7502C10.2209 18.7502 10.4328 18.6624 10.5891 18.5061C10.7454 18.3498 10.8332 18.1379 10.8332 17.9168C10.8332 17.1433 11.1405 16.4014 11.6874 15.8545C12.2344 15.3075 12.9763 15.0002 13.7498 15.0002C14.5234 15.0002 15.2653 15.3075 15.8122 15.8545C16.3592 16.4014 16.6665 17.1433 16.6665 17.9168C16.6665 18.1379 16.7543 18.3498 16.9106 18.5061C17.0669 18.6624 17.2788 18.7502 17.4998 18.7502C17.7209 18.7502 17.9328 18.6624 18.0891 18.5061C18.2454 18.3498 18.3332 18.1379 18.3332 17.9168C18.333 17.1034 18.1159 16.3047 17.7043 15.6031C17.2927 14.9015 16.7014 14.3223 15.9915 13.9252ZM9.99984 9.16685C9.42298 9.16685 8.85907 8.99579 8.37942 8.67531C7.89978 8.35482 7.52594 7.8993 7.30519 7.36635C7.08443 6.83339 7.02667 6.24695 7.13921 5.68117C7.25175 5.11539 7.52954 4.59569 7.93744 4.18779C8.34535 3.77989 8.86505 3.5021 9.43082 3.38956C9.9966 3.27702 10.583 3.33478 11.116 3.55554C11.6489 3.77629 12.1045 4.15013 12.425 4.62977C12.7454 5.10942 12.9165 5.67332 12.9165 6.25019C12.9165 7.02373 12.6092 7.7656 12.0622 8.31258C11.5153 8.85956 10.7734 9.16685 9.99984 9.16685ZM13.7498 13.3335C13.4183 13.3335 13.1004 13.2018 12.866 12.9674C12.6315 12.733 12.4998 12.415 12.4998 12.0835C12.502 11.7527 12.6344 11.436 12.8684 11.202C13.1023 10.9681 13.419 10.8357 13.7498 10.8335C14.0814 10.8335 14.3993 10.9652 14.6337 11.1996C14.8681 11.4341 14.9998 11.752 14.9998 12.0835C14.9998 12.415 14.8681 12.733 14.6337 12.9674C14.3993 13.2018 14.0814 13.3335 13.7498 13.3335Z" fill="#464255"/>
</svg>
