<svg width="43" height="48" viewBox="0 0 43 48" fill="none" xmlns="http://www.w3.org/2000/svg">
<g clip-path="url(#clip0_345_75)">
<path d="M22.2011 1.00016C24.503 1.00016 26.6343 1.82016 28.3767 3.22016L12.1536 21.4862C11.984 21.6707 11.8487 21.8913 11.7556 22.1353C11.6625 22.3794 11.6135 22.6418 11.6115 22.9074C11.6094 23.1729 11.6543 23.4363 11.7437 23.6821C11.833 23.9279 11.9648 24.1512 12.1316 24.3389C12.2984 24.5267 12.4967 24.6752 12.715 24.7758C12.9332 24.8764 13.1671 24.927 13.4029 24.9247C13.6388 24.9224 13.8718 24.8672 14.0885 24.7624C14.3052 24.6575 14.5012 24.5052 14.6651 24.3142L30.8881 6.04616C32.1725 8.07623 32.8612 10.5076 32.8578 13.0002V33.0002C32.8578 34.061 32.4836 35.0784 31.8174 35.8286C31.1512 36.5787 30.2477 37.0002 29.3056 37.0002H4.43993C3.49782 37.0002 2.5943 36.5787 1.92812 35.8286C1.26195 35.0784 0.887695 34.061 0.887695 33.0002V5.00016C0.887695 3.93929 1.26195 2.92188 1.92812 2.17173C2.5943 1.42159 3.49782 1.00016 4.43993 1.00016H22.2011ZM34.0248 -0.313841C34.3577 0.061214 34.5448 0.56983 34.5448 1.10016C34.5448 1.63049 34.3577 2.1391 34.0248 2.51416L30.8864 6.04616C30.1947 4.95279 29.3459 3.997 28.3749 3.21816L31.5115 -0.313841C31.8446 -0.688783 32.2963 -0.899414 32.7673 -0.899414C33.2382 -0.899414 33.6917 -0.688783 34.0248 -0.313841Z" fill="black"/>
</g>
<defs>
<clipPath id="clip0_345_75">
<rect width="42.6269" height="48" fill="white"/>
</clipPath>
</defs>
</svg>
