<svg width="20" height="20" viewBox="0 0 20 20" fill="none" xmlns="http://www.w3.org/2000/svg">
<path d="M2.49996 18.3335H5.83329C5.94296 18.3341 6.05168 18.3131 6.15321 18.2716C6.25474 18.2302 6.34709 18.169 6.42496 18.0918L16.425 8.09181C16.5031 8.01434 16.5651 7.92217 16.6074 7.82062C16.6497 7.71907 16.6715 7.61015 16.6715 7.50014C16.6715 7.39013 16.6497 7.28121 16.6074 7.17966C16.5651 7.07811 16.5031 6.98595 16.425 6.90848L13.0916 3.57514C13.0142 3.49704 12.922 3.43504 12.8204 3.39273C12.7189 3.35043 12.61 3.32864 12.5 3.32864C12.3899 3.32864 12.281 3.35043 12.1795 3.39273C12.0779 3.43504 11.9858 3.49704 11.9083 3.57514L1.90829 13.5751C1.83106 13.653 1.76995 13.7454 1.72848 13.8469C1.68701 13.9484 1.66599 14.0571 1.66662 14.1668V17.5001C1.66662 17.7212 1.75442 17.9331 1.9107 18.0894C2.06698 18.2457 2.27894 18.3335 2.49996 18.3335ZM3.33329 14.5085L12.5 5.34181L14.6583 7.50014L5.49162 16.6668H3.33329V14.5085Z" fill="#464255"/>
<path d="M14.7584 1.90831C14.6807 1.83062 14.5885 1.76898 14.487 1.72693C14.3854 1.68488 14.2766 1.66324 14.1668 1.66324C13.9448 1.66324 13.732 1.7514 13.5751 1.90831C13.4182 2.06523 13.33 2.27806 13.33 2.49998C13.33 2.7219 13.4182 2.93473 13.5751 3.09165L16.9084 6.42498C16.9859 6.50309 17.0781 6.56509 17.1796 6.60739C17.2812 6.6497 17.3901 6.67148 17.5001 6.67148C17.6101 6.67148 17.719 6.6497 17.8206 6.60739C17.9221 6.56509 18.0143 6.50309 18.0918 6.42498C18.1699 6.34751 18.2319 6.25535 18.2742 6.1538C18.3165 6.05225 18.3382 5.94333 18.3382 5.83332C18.3382 5.72331 18.3165 5.61439 18.2742 5.51284C18.2319 5.41129 18.1699 5.31912 18.0918 5.24165L14.7584 1.90831Z" fill="#464255"/>
</svg>
