<svg width="20" height="20" viewBox="0 0 20 20" fill="none" xmlns="http://www.w3.org/2000/svg">
<path d="M16.8751 6.875H16.0033L16.1096 5.81119C16.1356 5.55056 16.1067 5.28737 16.0248 5.03858C15.9428 4.78979 15.8097 4.56093 15.6339 4.36674C15.4582 4.17255 15.2437 4.01734 15.0042 3.91112C14.7648 3.80489 14.5058 3.75001 14.2439 3.75H4.50637C4.24439 3.75002 3.98532 3.80493 3.74586 3.9112C3.5064 4.01746 3.29186 4.17272 3.11607 4.36696C2.94027 4.56121 2.80713 4.79013 2.72522 5.03897C2.64331 5.28782 2.61445 5.55107 2.64049 5.81175L3.49642 15.3719C3.51322 15.5218 3.48031 15.2108 3.60005 15.8107H1.73067C1.56491 15.8107 1.40594 15.8765 1.28873 15.9937C1.17152 16.1109 1.10567 16.2699 1.10567 16.4357C1.10567 16.6014 1.17152 16.7604 1.28873 16.8776C1.40594 16.9948 1.56491 17.0607 1.73067 17.0607L17.0001 17.25C17.1659 17.25 17.3249 17.1842 17.4421 17.0669C17.5593 16.9497 17.6251 16.7908 17.6251 16.625C17.6251 16.4592 17.5593 16.3003 17.4421 16.1831C17.3249 16.0658 17.1659 16 17.0001 16H15.1309C15.1828 15.8586 15.2176 15.7115 15.2344 15.5618L15.4406 12.5H16.8751C17.3722 12.4995 17.8488 12.3017 18.2003 11.9502C18.5519 11.5987 18.7496 11.1221 18.7501 10.625V8.75C18.7496 8.25289 18.5519 7.77629 18.2003 7.42478C17.8488 7.07327 17.3722 6.87555 16.8751 6.875ZM5.6614 15.8107C5.50637 15.8112 5.35673 15.7538 5.24179 15.6498C5.12685 15.5457 5.0549 15.4025 5.04003 15.2482L4.13796 5.83982C4.12926 5.75289 4.13886 5.6651 4.16615 5.5821C4.19344 5.49911 4.23781 5.42275 4.29641 5.35795C4.35501 5.29314 4.42653 5.24133 4.50637 5.20585C4.58621 5.17037 4.67259 5.15201 4.75996 5.15195L14.0205 5.20585C14.1079 5.20591 14.1942 5.22426 14.274 5.25971C14.3538 5.29517 14.4254 5.34694 14.4839 5.4117C14.5425 5.47647 14.5869 5.55278 14.6142 5.63574C14.6415 5.71869 14.6512 5.80645 14.6425 5.89335L14.0205 15.2488C14.0055 15.4031 13.9335 15.5462 13.8185 15.6501C13.7035 15.754 13.5539 15.8113 13.3989 15.8107H5.6614ZM17.5001 10.625C17.5 10.7907 17.4341 10.9496 17.3169 11.0668C17.1998 11.184 17.0408 11.2499 16.8751 11.25H15.5657L15.8782 8.125H16.8751C17.0408 8.1251 17.1998 8.19098 17.3169 8.30817C17.4341 8.42536 17.5 8.58427 17.5001 8.75V10.625Z" fill="#464255"/>
</svg>
