<?xml version="1.0" encoding="utf-8"?><!-- Uploaded to: SVG Repo, www.svgrepo.com, Generator: SVG Repo Mixer Tools -->
<svg width="800px" height="800px" viewBox="0 0 24 24" fill="none" xmlns="http://www.w3.org/2000/svg">
<path d="M10 3V4.4C10 4.96005 10 5.24008 10.109 5.45399C10.2049 5.64215 10.3578 5.79513 10.546 5.89101C10.7599 6 11.0399 6 11.6 6H12.4C12.9601 6 13.2401 6 13.454 5.89101C13.6422 5.79513 13.7951 5.64215 13.891 5.45399C14 5.24008 14 4.96005 14 4.4V3M9.2 21H14.8C15.9201 21 16.4802 21 16.908 20.782C17.2843 20.5903 17.5903 20.2843 17.782 19.908C18 19.4802 18 18.9201 18 17.8V6.2C18 5.0799 18 4.51984 17.782 4.09202C17.5903 3.71569 17.2843 3.40973 16.908 3.21799C16.4802 3 15.9201 3 14.8 3H9.2C8.0799 3 7.51984 3 7.09202 3.21799C6.71569 3.40973 6.40973 3.71569 6.21799 4.09202C6 4.51984 6 5.07989 6 6.2V17.8C6 18.9201 6 19.4802 6.21799 19.908C6.40973 20.2843 6.71569 20.5903 7.09202 20.782C7.51984 21 8.07989 21 9.2 21Z" stroke="#000000" stroke-width="2" stroke-linecap="round" stroke-linejoin="round"/>
</svg>