<?xml version="1.0" encoding="utf-8"?>

<!DOCTYPE svg PUBLIC "-//W3C//DTD SVG 1.1//EN" "http://www.w3.org/Graphics/SVG/1.1/DTD/svg11.dtd">
<!-- Uploaded to: SVG Repo, www.svgrepo.com, Generator: SVG Repo Mixer Tools -->
<svg height="800px" width="800px" version="1.1" id="_x32_" xmlns="http://www.w3.org/2000/svg" xmlns:xlink="http://www.w3.org/1999/xlink" 
	 viewBox="0 0 512 512"  xml:space="preserve">
<style type="text/css">
	.st0{fill:#000000;}
</style>
<g>
	<path class="st0" d="M341.601,0H170.399c-29.292,0-53.121,23.828-53.121,53.121v405.756c0,29.292,23.83,53.123,53.121,53.123
		h171.202c29.292,0,53.121-23.83,53.121-53.119V53.121C394.722,23.828,370.893,0,341.601,0z M234.91,453.434
		c0-0.536,0.452-0.988,0.988-0.988H276.1c0.536,0,0.988,0.452,0.988,0.988v13.684c0,0.536-0.452,0.988-0.988,0.988h-40.202
		c-0.536,0-0.988-0.452-0.988-0.988V453.434z M277.088,429.684c0,0.536-0.452,0.988-0.988,0.988h-40.202
		c-0.536,0-0.988-0.452-0.988-0.988V416c0-0.534,0.452-0.984,0.988-0.984H276.1c0.536,0,0.988,0.45,0.988,0.984V429.684z
		 M277.088,392.25c0,0.545-0.443,0.988-0.988,0.988h-40.202c-0.546,0-0.988-0.442-0.988-0.988v-13.68
		c0-0.536,0.452-0.988,0.988-0.988H276.1c0.536,0,0.988,0.452,0.988,0.988V392.25z M255.999,351.476
		c-13.461,0-24.414-10.951-24.414-24.412c0-13.462,10.953-24.416,24.414-24.416c13.463,0,24.416,10.953,24.416,24.416
		C280.415,340.524,269.462,351.476,255.999,351.476z M170.397,36.304h171.202c10.004,0,18.142,8.137,18.142,18.144v225.136H152.257
		V54.449C152.257,44.441,160.395,36.304,170.397,36.304z M211.35,315.983v22.162h-43.742l-13.906-22.162H211.35z M203.025,429.684
		c0,0.536-0.452,0.988-0.986,0.988h-40.204c-0.534,0-0.986-0.452-0.986-0.988V416c0-0.542,0.443-0.984,0.986-0.984h40.204
		c0.544,0,0.986,0.443,0.986,0.984V429.684z M203.025,392.25c0,0.545-0.442,0.988-0.986,0.988h-40.204
		c-0.543,0-0.986-0.442-0.986-0.988v-13.68c0-0.536,0.452-0.988,0.986-0.988h40.204c0.534,0,0.986,0.452,0.986,0.988V392.25z
		 M160.849,467.118v-13.684c0-0.536,0.452-0.988,0.986-0.988h40.204c0.534,0,0.986,0.452,0.986,0.988v13.684
		c0,0.536-0.452,0.988-0.986,0.988h-40.204C161.302,468.106,160.849,467.654,160.849,467.118z M358.295,315.983l-13.905,22.162
		h-43.742v-22.162H358.295z M351.151,429.684c0,0.536-0.452,0.988-0.988,0.988h-40.202c-0.536,0-0.988-0.452-0.988-0.988V416
		c0-0.542,0.443-0.984,0.988-0.984h40.202c0.546,0,0.988,0.443,0.988,0.984V429.684z M351.151,392.25
		c0,0.545-0.442,0.988-0.988,0.988h-40.202c-0.545,0-0.988-0.442-0.988-0.988v-13.68c0-0.536,0.452-0.988,0.988-0.988h40.202
		c0.536,0,0.988,0.452,0.988,0.988V392.25z M308.973,467.118v-13.684c0-0.536,0.452-0.988,0.988-0.988h40.202
		c0.536,0,0.988,0.452,0.988,0.988v13.684c0,0.536-0.452,0.988-0.988,0.988h-40.202
		C309.425,468.106,308.973,467.654,308.973,467.118z"/>
</g>
</svg>